<svg width="135" height="40" viewBox="0 0 135 40" fill="none" xmlns="http://www.w3.org/2000/svg">
<path d="M130.197 40H4.729C3.47499 39.9971 2.27324 39.4974 1.38689 38.6103C0.500547 37.7232 0.00184854 36.521 0 35.267L0 4.726C0.00185325 3.47264 0.500776 2.27118 1.38732 1.3852C2.27386 0.499218 3.47564 0.00105789 4.729 0L130.197 0C132.803 0 135 2.12 135 4.726V35.267C135 37.872 132.803 40 130.197 40Z" fill="#A6A6A6"/>
<path d="M134.032 35.268C134.032 35.7713 133.932 36.2697 133.74 36.7346C133.547 37.1996 133.265 37.6219 132.908 37.9776C132.552 38.3334 132.13 38.6154 131.665 38.8076C131.199 38.9999 130.701 39.0985 130.198 39.098H4.72865C3.71172 39.0991 2.736 38.6962 2.01608 37.978C1.29615 37.2597 0.890974 36.285 0.889648 35.268V4.72501C0.890973 3.70762 1.29599 2.73234 2.01577 2.01331C2.73555 1.29428 3.71126 0.890279 4.72865 0.890015H130.197C130.7 0.890015 131.199 0.989217 131.664 1.18196C132.129 1.3747 132.552 1.6572 132.908 2.01332C133.264 2.36945 133.546 2.79222 133.739 3.2575C133.932 3.72278 134.031 4.22144 134.031 4.72501L134.032 35.268Z" fill="#002100"/>
<path d="M30.1281 19.784C30.0991 16.561 32.7671 14.993 32.8891 14.92C31.3781 12.717 29.0361 12.416 28.2131 12.392C26.2461 12.185 24.3381 13.569 23.3361 13.569C22.3141 13.569 20.7711 12.412 19.1081 12.446C16.9681 12.479 14.9661 13.718 13.8681 15.642C11.6021 19.565 13.2921 25.33 15.4631 28.501C16.5491 30.054 17.8181 31.788 19.4791 31.727C21.1041 31.66 21.7111 30.691 23.6721 30.691C25.6151 30.691 26.1851 31.727 27.8791 31.688C29.6231 31.66 30.7211 30.128 31.7691 28.561C33.0241 26.781 33.5281 25.028 33.5481 24.938C33.5071 24.924 30.1611 23.647 30.1281 19.784ZM26.9281 10.306C27.8021 9.21298 28.4001 7.72598 28.2341 6.21698C26.9691 6.27298 25.3871 7.09198 24.4761 8.16098C23.6701 9.10298 22.9501 10.647 23.1361 12.099C24.5571 12.205 26.0161 11.382 26.9281 10.306ZM53.6451 31.504H51.3741L50.1301 27.595H45.8061L44.6211 31.504H42.4101L46.6941 18.196H49.3401L53.6451 31.504ZM49.7551 25.955L48.6301 22.48C48.5111 22.125 48.2881 21.289 47.9591 19.973H47.9191C47.7196 20.8114 47.5089 21.6472 47.2871 22.48L46.1821 25.955H49.7551ZM64.6621 26.588C64.6621 28.22 64.2211 29.51 63.3391 30.457C62.5491 31.3 61.5681 31.721 60.3971 31.721C59.1331 31.721 58.2251 31.267 57.6721 30.359H57.6321V35.414H55.5001V25.067C55.5001 24.041 55.4731 22.988 55.4211 21.908H57.2961L57.4151 23.429H57.4551C58.1661 22.283 59.2451 21.711 60.6931 21.711C61.8251 21.711 62.7701 22.158 63.5261 23.053C64.2841 23.949 64.6621 25.127 64.6621 26.588ZM62.4901 26.666C62.4901 25.732 62.2801 24.962 61.8581 24.356C61.3971 23.724 60.7781 23.408 60.0021 23.408C59.4761 23.408 58.9981 23.584 58.5711 23.931C58.1431 24.281 57.8631 24.738 57.7321 25.304C57.6661 25.568 57.6331 25.784 57.6331 25.954V27.554C57.6331 28.252 57.8471 28.841 58.2751 29.322C58.7031 29.803 59.2591 30.043 59.9431 30.043C60.7461 30.043 61.3711 29.733 61.8181 29.115C62.2661 28.496 62.4901 27.68 62.4901 26.666ZM75.6991 26.588C75.6991 28.22 75.2581 29.51 74.3751 30.457C73.5861 31.3 72.6051 31.721 71.4341 31.721C70.1701 31.721 69.2621 31.267 68.7101 30.359H68.6701V35.414H66.5381V25.067C66.5381 24.041 66.5111 22.988 66.4591 21.908H68.3341L68.4531 23.429H68.4931C69.2031 22.283 70.2821 21.711 71.7311 21.711C72.8621 21.711 73.8071 22.158 74.5651 23.053C75.3201 23.949 75.6991 25.127 75.6991 26.588ZM73.5271 26.666C73.5271 25.732 73.3161 24.962 72.8941 24.356C72.4331 23.724 71.8161 23.408 71.0391 23.408C70.515 23.4078 70.0077 23.5931 69.6071 23.931C69.1791 24.281 68.9001 24.738 68.7691 25.304C68.7041 25.568 68.6701 25.784 68.6701 25.954V27.554C68.6701 28.252 68.8841 28.841 69.3101 29.322C69.7381 29.802 70.2941 30.043 70.9801 30.043C71.7831 30.043 72.4081 29.733 72.8551 29.115C73.3031 28.496 73.5271 27.68 73.5271 26.666ZM88.0391 27.772C88.0391 28.904 87.6461 29.825 86.8571 30.536C85.9901 31.313 84.7831 31.701 83.2321 31.701C81.8001 31.701 80.6521 31.425 79.7831 30.872L80.2771 29.095C81.2131 29.661 82.2401 29.945 83.3591 29.945C84.1621 29.945 84.7871 29.763 85.2361 29.401C85.6831 29.039 85.9061 28.553 85.9061 27.947C85.9061 27.407 85.7221 26.952 85.3531 26.583C84.9861 26.214 84.3731 25.871 83.5171 25.554C81.1871 24.685 80.0231 23.412 80.0231 21.738C80.0231 20.644 80.4311 19.747 81.2481 19.049C82.0621 18.35 83.1481 18.001 84.5061 18.001C85.7171 18.001 86.7231 18.212 87.5261 18.633L86.9931 20.371C86.2431 19.963 85.3951 19.759 84.4461 19.759C83.6961 19.759 83.1101 19.944 82.6901 20.312C82.5198 20.4626 82.384 20.6483 82.292 20.8563C82.2 21.0642 82.154 21.2896 82.1571 21.517C82.1571 22.043 82.3601 22.478 82.7681 22.82C83.1231 23.136 83.7681 23.478 84.7041 23.847C85.8491 24.308 86.6901 24.847 87.2311 25.465C87.7701 26.081 88.0391 26.852 88.0391 27.772ZM95.0881 23.508H92.7381V28.167C92.7381 29.352 93.1521 29.944 93.9821 29.944C94.3631 29.944 94.6791 29.911 94.9291 29.845L94.9881 31.464C94.5681 31.621 94.0151 31.7 93.3301 31.7C92.4881 31.7 91.8301 31.443 91.3551 30.93C90.8821 30.416 90.6441 29.554 90.6441 28.343V23.506H89.2441V21.906H90.6441V20.149L92.7381 19.517V21.906H95.0881V23.508ZM105.691 26.627C105.691 28.102 105.269 29.313 104.427 30.26C103.544 31.235 102.372 31.721 100.911 31.721C99.5031 31.721 98.3821 31.254 97.5461 30.32C96.7101 29.386 96.2921 28.207 96.2921 26.786C96.2921 25.299 96.7221 24.081 97.5851 23.134C98.4461 22.186 99.6081 21.712 101.069 21.712C102.477 21.712 103.61 22.179 104.465 23.114C105.283 24.021 105.691 25.192 105.691 26.627ZM103.479 26.696C103.479 25.811 103.29 25.052 102.907 24.419C102.46 23.653 101.821 23.271 100.993 23.271C100.136 23.271 99.4851 23.654 99.0381 24.419C98.6551 25.053 98.4661 25.824 98.4661 26.736C98.4661 27.621 98.6551 28.38 99.0381 29.012C99.4991 29.778 100.143 30.16 100.974 30.16C101.788 30.16 102.427 29.77 102.888 28.992C103.281 28.347 103.479 27.58 103.479 26.696ZM112.621 23.783C112.399 23.7429 112.174 23.7232 111.949 23.724C111.199 23.724 110.619 24.007 110.211 24.574C109.856 25.074 109.678 25.706 109.678 26.469V31.504H107.547L107.567 24.93C107.567 23.824 107.54 22.817 107.487 21.909H109.344L109.422 23.745H109.481C109.706 23.114 110.061 22.606 110.547 22.225C110.992 21.8921 111.532 21.7118 112.088 21.711C112.285 21.711 112.463 21.725 112.621 21.75V23.783ZM122.156 26.252C122.161 26.5761 122.135 26.8999 122.078 27.219H115.682C115.707 28.167 116.016 28.892 116.61 29.392C117.149 29.839 117.846 30.063 118.702 30.063C119.649 30.063 120.513 29.912 121.29 29.609L121.624 31.089C120.716 31.485 119.644 31.682 118.407 31.682C116.919 31.682 115.751 31.244 114.901 30.369C114.053 29.494 113.628 28.319 113.628 26.845C113.628 25.398 114.023 24.193 114.814 23.232C115.642 22.206 116.761 21.693 118.169 21.693C119.552 21.693 120.599 22.206 121.31 23.232C121.873 24.047 122.156 25.055 122.156 26.252ZM120.123 25.699C120.137 25.067 119.998 24.521 119.709 24.06C119.34 23.467 118.773 23.171 118.01 23.171C117.313 23.171 116.746 23.46 116.313 24.04C115.958 24.501 115.747 25.054 115.682 25.698H120.123V25.699ZM49.0501 10.009C49.0501 11.186 48.6971 12.072 47.9921 12.667C47.3391 13.216 46.4111 13.491 45.2091 13.491C44.6131 13.491 44.1031 13.465 43.6761 13.413V6.98198C44.2331 6.89198 44.8331 6.84598 45.4811 6.84598C46.6261 6.84598 47.4891 7.09498 48.0711 7.59298C48.7231 8.15598 49.0501 8.96098 49.0501 10.009ZM47.9451 10.038C47.9451 9.27498 47.7431 8.68998 47.3391 8.28198C46.9351 7.87498 46.3451 7.67098 45.5681 7.67098C45.2381 7.67098 44.9571 7.69298 44.7241 7.73898V12.628C44.8531 12.648 45.0891 12.657 45.4321 12.657C46.2341 12.657 46.8531 12.434 47.2891 11.988C47.7251 11.542 47.9451 10.892 47.9451 10.038ZM54.9091 11.037C54.9091 11.762 54.7021 12.356 54.2881 12.822C53.8541 13.301 53.2791 13.54 52.5611 13.54C51.8691 13.54 51.3181 13.311 50.9071 12.851C50.4971 12.392 50.2921 11.813 50.2921 11.115C50.2921 10.385 50.5031 9.78598 50.9271 9.32098C51.3511 8.85598 51.9211 8.62298 52.6391 8.62298C53.3311 8.62298 53.8871 8.85198 54.3081 9.31098C54.7081 9.75698 54.9091 10.333 54.9091 11.037ZM53.8221 11.071C53.8221 10.636 53.7281 10.263 53.5411 9.95198C53.3211 9.57598 53.0081 9.38798 52.6011 9.38798C52.1801 9.38798 51.8601 9.57598 51.6401 9.95198C51.4521 10.263 51.3591 10.642 51.3591 11.09C51.3591 11.525 51.4531 11.898 51.6401 12.209C51.8671 12.585 52.1831 12.773 52.5911 12.773C52.9911 12.773 53.3051 12.582 53.5311 12.199C53.7251 11.882 53.8221 11.506 53.8221 11.071ZM62.7651 8.71898L61.2901 13.433H60.3301L59.7191 11.386C59.5668 10.8851 59.4403 10.3768 59.3401 9.86298H59.3211C59.2307 10.3789 59.104 10.8878 58.9421 11.386L58.2931 13.433H57.3221L55.9351 8.71898H57.0121L57.5451 10.96C57.6741 11.49 57.7801 11.995 57.8651 12.473H57.8841C57.9621 12.079 58.0911 11.577 58.2731 10.97L58.9421 8.71998H59.7961L60.4371 10.922C60.5921 11.459 60.7181 11.976 60.8151 12.474H60.8441C60.9151 11.989 61.0221 11.472 61.1641 10.922L61.7361 8.71998H62.7651V8.71898ZM68.1981 13.433H67.1501V10.733C67.1501 9.90098 66.8341 9.48498 66.2001 9.48498C66.0561 9.48075 65.9131 9.50946 65.7819 9.5689C65.6507 9.62834 65.5348 9.71695 65.4431 9.82798C65.2511 10.053 65.1477 10.3402 65.1521 10.636V13.432H64.1041V10.066C64.1041 9.65198 64.0911 9.20298 64.0661 8.71698H64.9871L65.0361 9.45398H65.0651C65.1871 9.22498 65.3691 9.03598 65.6081 8.88498C65.8921 8.70898 66.2101 8.61998 66.5581 8.61998C66.9981 8.61998 67.3641 8.76198 67.6551 9.04698C68.0171 9.39598 68.1981 9.91698 68.1981 10.609V13.433ZM71.0881 13.433H70.0411V6.55598H71.0881V13.433ZM77.2581 11.037C77.2581 11.762 77.0511 12.356 76.6371 12.822C76.2031 13.301 75.6271 13.54 74.9101 13.54C74.2171 13.54 73.6661 13.311 73.2561 12.851C72.8461 12.392 72.6411 11.813 72.6411 11.115C72.6411 10.385 72.8521 9.78598 73.2761 9.32098C73.7001 8.85598 74.2701 8.62298 74.9871 8.62298C75.6801 8.62298 76.2351 8.85198 76.6571 9.31098C77.0571 9.75698 77.2581 10.333 77.2581 11.037ZM76.1701 11.071C76.1701 10.636 76.0761 10.263 75.8891 9.95198C75.6701 9.57598 75.3561 9.38798 74.9501 9.38798C74.5281 9.38798 74.2081 9.57598 73.9891 9.95198C73.8011 10.263 73.7081 10.642 73.7081 11.09C73.7081 11.525 73.8021 11.898 73.9891 12.209C74.2161 12.585 74.5321 12.773 74.9401 12.773C75.3401 12.773 75.6531 12.582 75.8791 12.199C76.0741 11.882 76.1701 11.506 76.1701 11.071ZM82.3301 13.433H81.3891L81.3111 12.89H81.2821C80.9601 13.323 80.5011 13.54 79.9051 13.54C79.4601 13.54 79.1001 13.397 78.8291 13.113C78.7074 12.9852 78.6121 12.8346 78.5487 12.6698C78.4854 12.5051 78.4553 12.3294 78.4601 12.153C78.4601 11.577 78.7001 11.138 79.1831 10.834C79.6651 10.53 80.3431 10.381 81.2161 10.388V10.3C81.2161 9.67898 80.8901 9.36898 80.2371 9.36898C79.7721 9.36898 79.3621 9.48598 79.0081 9.71798L78.7951 9.02998C79.2331 8.75898 79.7741 8.62298 80.4121 8.62298C81.6441 8.62298 82.2621 9.27298 82.2621 10.573V12.309C82.2621 12.78 82.2851 13.155 82.3301 13.433ZM81.2421 11.813V11.086C80.0861 11.066 79.5081 11.383 79.5081 12.036C79.5081 12.282 79.5741 12.466 79.7091 12.589C79.8498 12.7137 80.0331 12.7796 80.2211 12.773C80.4511 12.773 80.6661 12.7 80.8621 12.555C80.981 12.4715 81.0778 12.3603 81.144 12.231C81.2102 12.1017 81.2439 11.9582 81.2421 11.813ZM88.2851 13.433H87.3551L87.3061 12.676H87.2771C86.9801 13.252 86.4741 13.54 85.7631 13.54C85.1951 13.54 84.7221 13.317 84.3471 12.871C83.9721 12.425 83.7851 11.846 83.7851 11.135C83.7851 10.372 83.9881 9.75398 84.3961 9.28198C84.7911 8.84198 85.2751 8.62198 85.8511 8.62198C86.4841 8.62198 86.9271 8.83498 87.1791 9.26198H87.1991V6.55598H88.2481V12.163C88.2481 12.622 88.2601 13.045 88.2851 13.433ZM87.1991 11.445V10.659C87.2089 10.4777 87.1773 10.2966 87.1066 10.1293C87.0359 9.96212 86.928 9.81323 86.7911 9.69398C86.5978 9.52366 86.3477 9.43196 86.0901 9.43698C85.6991 9.43698 85.3931 9.59198 85.1681 9.90298C84.9451 10.214 84.8321 10.611 84.8321 11.096C84.8321 11.562 84.9391 11.94 85.1541 12.231C85.3811 12.541 85.6871 12.696 86.0701 12.696C86.4141 12.696 86.6891 12.567 86.8981 12.308C87.1001 12.069 87.1991 11.781 87.1991 11.445ZM97.2481 11.037C97.2481 11.762 97.0411 12.356 96.6271 12.822C96.1931 13.301 95.6191 13.54 94.9001 13.54C94.2091 13.54 93.6581 13.311 93.2461 12.851C92.8361 12.392 92.6311 11.813 92.6311 11.115C92.6311 10.385 92.8421 9.78598 93.2661 9.32098C93.6901 8.85598 94.2601 8.62298 94.9791 8.62298C95.6701 8.62298 96.2271 8.85198 96.6471 9.31098C97.0471 9.75698 97.2481 10.333 97.2481 11.037ZM96.1621 11.071C96.1621 10.636 96.0681 10.263 95.8811 9.95198C95.6601 9.57598 95.3481 9.38798 94.9401 9.38798C94.5201 9.38798 94.2001 9.57598 93.9791 9.95198C93.7911 10.263 93.6981 10.642 93.6981 11.09C93.6981 11.525 93.7921 11.898 93.9791 12.209C94.2061 12.585 94.5221 12.773 94.9301 12.773C95.3301 12.773 95.6451 12.582 95.8711 12.199C96.0641 11.882 96.1621 11.506 96.1621 11.071ZM102.883 13.433H101.836V10.733C101.836 9.90098 101.52 9.48498 100.885 9.48498C100.574 9.48498 100.323 9.59898 100.129 9.82798C99.9351 10.057 99.8381 10.327 99.8381 10.636V13.432H98.7891V10.066C98.7891 9.65198 98.7771 9.20298 98.7521 8.71698H99.6721L99.7211 9.45398H99.7501C99.8784 9.22024 100.066 9.02409 100.293 8.88498C100.578 8.70898 100.895 8.61998 101.244 8.61998C101.683 8.61998 102.049 8.76198 102.34 9.04698C102.703 9.39598 102.883 9.91698 102.883 10.609V13.433ZM109.936 9.50398H108.782V11.794C108.782 12.376 108.987 12.667 109.393 12.667C109.581 12.667 109.737 12.651 109.86 12.618L109.887 13.413C109.68 13.491 109.408 13.53 109.073 13.53C108.659 13.53 108.337 13.404 108.104 13.152C107.87 12.9 107.754 12.476 107.754 11.881V9.50398H107.065V8.71898H107.754V7.85498L108.781 7.54498V8.71798H109.935V9.50398H109.936ZM115.484 13.433H114.435V10.753C114.435 9.90798 114.119 9.48498 113.486 9.48498C113 9.48498 112.668 9.72998 112.486 10.22C112.452 10.3426 112.435 10.4696 112.437 10.597V13.432H111.39V6.55598H112.437V9.39698H112.457C112.787 8.87998 113.26 8.62198 113.873 8.62198C114.307 8.62198 114.666 8.76398 114.951 9.04898C115.306 9.40398 115.484 9.93198 115.484 10.63V13.433ZM121.207 10.853C121.207 11.041 121.193 11.199 121.168 11.328H118.025C118.039 11.794 118.189 12.149 118.48 12.395C118.746 12.615 119.089 12.725 119.509 12.725C119.974 12.725 120.398 12.651 120.78 12.502L120.944 13.23C120.497 13.424 119.971 13.521 119.362 13.521C118.632 13.521 118.057 13.306 117.641 12.876C117.223 12.446 117.016 11.869 117.016 11.145C117.016 10.434 117.209 9.84198 117.598 9.36998C118.004 8.86598 118.553 8.61398 119.246 8.61398C119.924 8.61398 120.439 8.86598 120.787 9.36998C121.068 9.76998 121.207 10.265 121.207 10.853ZM120.207 10.582C120.222 10.2994 120.151 10.0189 120.004 9.77698C119.822 9.48598 119.545 9.33998 119.17 9.33998C119.007 9.3372 118.845 9.3747 118.7 9.44917C118.554 9.52364 118.429 9.63279 118.336 9.76698C118.158 10.0042 118.051 10.2866 118.025 10.582H120.207Z" fill="white"/>
</svg>
