<svg width="155" height="60" viewBox="0 0 155 60" fill="none" xmlns="http://www.w3.org/2000/svg">
<g clip-path="url(#clip0_682_502)">
<path d="M140 10H15C12.2386 10 10 12.2386 10 15V45C10 47.7614 12.2386 50 15 50H140C142.761 50 145 47.7614 145 45V15C145 12.2386 142.761 10 140 10Z" fill="#002100"/>
<path d="M140 10.8C141.114 10.8 142.182 11.2425 142.97 12.0302C143.758 12.8178 144.2 13.8861 144.2 15V45C144.2 46.1139 143.758 47.1822 142.97 47.9698C142.182 48.7575 141.114 49.2 140 49.2H15C13.8861 49.2 12.8178 48.7575 12.0302 47.9698C11.2425 47.1822 10.8 46.1139 10.8 45V15C10.8 13.8861 11.2425 12.8178 12.0302 12.0302C12.8178 11.2425 13.8861 10.8 15 10.8H140ZM140 10H15C13.6739 10 12.4021 10.5268 11.4645 11.4645C10.5268 12.4021 10 13.6739 10 15V45C10 46.3261 10.5268 47.5979 11.4645 48.5355C12.4021 49.4732 13.6739 50 15 50H140C141.326 50 142.598 49.4732 143.536 48.5355C144.473 47.5979 145 46.3261 145 45V15C145 13.6739 144.473 12.4021 143.536 11.4645C142.598 10.5268 141.326 10 140 10Z" fill="#A6A6A6"/>
<path d="M57.4201 20.2405C57.4371 20.6072 57.3794 20.9737 57.2504 21.3175C57.1215 21.6613 56.9241 21.9753 56.6701 22.2405C56.3865 22.5351 56.044 22.7666 55.6649 22.9199C55.2859 23.0733 54.8787 23.145 54.4701 23.1305C53.8501 23.1256 53.2453 22.9379 52.7315 22.5908C52.2177 22.2437 51.8177 21.7527 51.5818 21.1794C51.3458 20.606 51.2843 19.9757 51.405 19.3675C51.5256 18.7594 51.8231 18.2003 52.2601 17.7605C52.5473 17.4672 52.8916 17.2361 53.2717 17.0813C53.6519 16.9265 54.0597 16.8513 54.4701 16.8605C54.8928 16.8591 55.3114 16.9441 55.7001 17.1105C56.0619 17.2564 56.3841 17.486 56.6401 17.7805L56.1101 18.3105C55.9105 18.0731 55.6584 17.8853 55.3738 17.7621C55.0892 17.6389 54.7798 17.5835 54.4701 17.6005C54.1577 17.5989 53.8483 17.6605 53.5603 17.7814C53.2723 17.9024 53.0117 18.0803 52.7941 18.3044C52.5765 18.5285 52.4064 18.7943 52.2941 19.0857C52.1817 19.3771 52.1293 19.6883 52.1401 20.0005C52.1335 20.4666 52.2652 20.9242 52.5184 21.3156C52.7716 21.707 53.1351 22.0147 53.563 22.1997C53.9909 22.3848 54.464 22.439 54.9226 22.3554C55.3813 22.2719 55.8049 22.0545 56.1401 21.7305C56.4478 21.397 56.6253 20.964 56.6401 20.5105H54.4701V19.7905H57.3801C57.4067 19.939 57.4201 20.0896 57.4201 20.2405ZM62.0001 17.7405H59.3001V19.6405H61.7601V20.3605H59.3001V22.2605H62.0001V23.0005H58.5001V17.0005H62.0001V17.7405ZM65.2801 23.0005H64.5101V17.7405H62.8301V17.0005H67.0001V17.7405H65.2801V23.0005ZM69.9401 23.0005V17.0005H70.7101V23.0005H69.9401ZM74.1301 23.0005H73.3601V17.7405H71.6801V17.0005H75.8001V17.7405H74.1301V23.0005ZM83.6101 22.2205C83.0255 22.8018 82.2345 23.1281 81.4101 23.1281C80.5856 23.1281 79.7947 22.8018 79.2101 22.2205C78.6418 21.619 78.3253 20.8229 78.3253 19.9955C78.3253 19.168 78.6418 18.3719 79.2101 17.7705C79.4982 17.4802 79.841 17.2498 80.2185 17.0926C80.5961 16.9354 81.0011 16.8545 81.4101 16.8545C81.8191 16.8545 82.224 16.9354 82.6016 17.0926C82.9792 17.2498 83.3219 17.4802 83.6101 17.7705C84.1806 18.3708 84.4986 19.1673 84.4986 19.9955C84.4986 20.8236 84.1806 21.6201 83.6101 22.2205ZM79.7801 21.7205C80.213 22.1516 80.7991 22.3936 81.4101 22.3936C82.0211 22.3936 82.6071 22.1516 83.0401 21.7205C83.4673 21.2495 83.704 20.6363 83.704 20.0005C83.704 19.3646 83.4673 18.7514 83.0401 18.2805C82.6071 17.8493 82.0211 17.6073 81.4101 17.6073C80.7991 17.6073 80.213 17.8493 79.7801 18.2805C79.3528 18.7514 79.1162 19.3646 79.1162 20.0005C79.1162 20.6363 79.3528 21.2495 79.7801 21.7205ZM85.5801 23.0005V17.0005H86.5201L89.4401 21.6705V17.0005H90.2101V23.0005H89.4101L86.3601 18.1105V23.0005H85.5801Z" fill="white" stroke="white" stroke-width="0.2" stroke-miterlimit="10"/>
<path d="M78.1401 31.75C77.3004 31.7539 76.4807 32.0066 75.7844 32.476C75.0881 32.9453 74.5465 33.6105 74.2279 34.3874C73.9093 35.1643 73.828 36.0182 73.9942 36.8413C74.1605 37.6644 74.5668 38.4198 75.162 39.0122C75.7571 39.6046 76.5144 40.0074 77.3383 40.1697C78.1622 40.3321 79.0157 40.2468 79.7911 39.9245C80.5665 39.6023 81.2291 39.0575 81.6952 38.3591C82.1613 37.6606 82.4101 36.8397 82.4101 36C82.4183 35.4379 82.3132 34.88 82.1013 34.3593C81.8893 33.8387 81.5748 33.366 81.1764 32.9695C80.7779 32.573 80.3038 32.2606 79.7822 32.0511C79.2606 31.8416 78.7021 31.7392 78.1401 31.75ZM78.1401 38.58C77.6237 38.6161 77.1083 38.496 76.6611 38.2354C76.2138 37.9747 75.8553 37.5855 75.6321 37.1184C75.409 36.6513 75.3315 36.1279 75.4098 35.6161C75.4881 35.1044 75.7185 34.6281 76.0711 34.249C76.4237 33.87 76.8821 33.6058 77.3869 33.4908C77.8916 33.3758 78.4193 33.4152 78.9013 33.6041C79.3833 33.7929 79.7973 34.1224 80.0896 34.5497C80.3819 34.977 80.5388 35.4823 80.5401 36C80.5562 36.328 80.5065 36.6559 80.3938 36.9644C80.2812 37.2729 80.1079 37.5557 79.8842 37.7962C79.6606 38.0366 79.391 38.2299 79.0914 38.3645C78.7919 38.4991 78.4684 38.5724 78.1401 38.58ZM68.8301 31.75C67.99 31.752 67.1692 32.0029 66.4717 32.4711C65.7741 32.9393 65.2309 33.6037 64.9108 34.3805C64.5906 35.1573 64.5079 36.0115 64.673 36.8352C64.8381 37.659 65.2437 38.4153 65.8384 39.0087C66.4332 39.6021 67.1905 40.0059 68.0146 40.1691C68.8388 40.3322 69.6928 40.2475 70.4688 39.9255C71.2448 39.6036 71.908 39.0588 72.3745 38.3601C72.8411 37.6614 73.0901 36.8401 73.0901 36C73.0982 35.4379 72.9932 34.88 72.7813 34.3593C72.5693 33.8387 72.2548 33.366 71.8564 32.9695C71.4579 32.573 70.9838 32.2606 70.4622 32.0511C69.9406 31.8416 69.3821 31.7392 68.8201 31.75H68.8301ZM68.8301 38.58C68.3134 38.6181 67.7972 38.4999 67.3487 38.2406C66.9002 37.9812 66.5402 37.5929 66.3155 37.1261C66.0907 36.6593 66.0118 36.1356 66.0888 35.6233C66.1658 35.111 66.3953 34.6338 66.7474 34.2537C67.0995 33.8736 67.5578 33.6084 68.0628 33.4924C68.5677 33.3765 69.0959 33.4153 69.5785 33.6037C70.0611 33.7921 70.4757 34.1215 70.7685 34.5489C71.0613 34.9763 71.2187 35.4819 71.2201 36C71.2362 36.328 71.1865 36.6559 71.0738 36.9644C70.9612 37.2729 70.7879 37.5557 70.5642 37.7962C70.3406 38.0366 70.071 38.2299 69.7714 38.3645C69.4719 38.4991 69.1484 38.5724 68.8201 38.58H68.8301ZM57.7401 33.06V34.86H62.0601C61.9924 35.7078 61.6399 36.5078 61.0601 37.13C60.6279 37.5702 60.1083 37.9151 59.5348 38.1425C58.9613 38.3698 58.3465 38.4746 57.7301 38.45C56.4571 38.45 55.2362 37.9443 54.336 37.0441C53.4358 36.1439 52.9301 34.923 52.9301 33.65C52.9301 32.377 53.4358 31.1561 54.336 30.2559C55.2362 29.3557 56.4571 28.85 57.7301 28.85C58.9479 28.8301 60.1239 29.294 61.0001 30.14L62.2701 28.87C61.6786 28.271 60.9728 27.7969 60.1947 27.4757C59.4166 27.1544 58.5819 26.9927 57.7401 27C56.8511 26.9654 55.9643 27.1106 55.1327 27.427C54.3012 27.7433 53.5421 28.2243 52.9009 28.841C52.2596 29.4577 51.7495 30.1976 51.4011 31.0162C51.0527 31.8348 50.873 32.7153 50.873 33.605C50.873 34.4947 51.0527 35.3752 51.4011 36.1938C51.7495 37.0124 52.2596 37.7522 52.9009 38.369C53.5421 38.9857 54.3012 39.4667 55.1327 39.783C55.9643 40.0994 56.8511 40.2446 57.7401 40.21C58.5961 40.2487 59.4504 40.1036 60.2455 39.7845C61.0407 39.4654 61.7583 38.9796 62.3501 38.36C63.3978 37.2089 63.9571 35.6958 63.9101 34.14C63.9133 33.761 63.8798 33.3825 63.8101 33.01L57.7401 33.06ZM103.05 34.46C102.789 33.6927 102.302 33.0228 101.652 32.5388C101.002 32.0549 100.22 31.7798 99.4101 31.75C98.8631 31.7489 98.3217 31.8601 97.8193 32.0765C97.317 32.293 96.8644 32.6102 96.4895 33.0085C96.1146 33.4069 95.8254 33.8778 95.6397 34.3924C95.4541 34.9069 95.3759 35.4541 95.4101 36C95.3979 36.5589 95.4986 37.1145 95.706 37.6337C95.9133 38.1528 96.2232 38.6249 96.6171 39.0216C97.0111 39.4183 97.4809 39.7315 97.9985 39.9426C98.5162 40.1536 99.0711 40.2582 99.6301 40.25C100.33 40.2538 101.019 40.084 101.637 39.7559C102.255 39.4278 102.781 38.9516 103.17 38.37L101.72 37.37C101.504 37.7308 101.197 38.0292 100.831 38.236C100.465 38.4429 100.051 38.5511 99.6301 38.55C99.1969 38.5665 98.7688 38.4523 98.4014 38.2222C98.034 37.9922 97.7444 37.6569 97.5701 37.26L103.26 34.91L103.05 34.46ZM97.2501 35.88C97.2298 35.5707 97.2715 35.2604 97.3726 34.9674C97.4737 34.6744 97.6323 34.4045 97.8391 34.1736C98.0458 33.9426 98.2966 33.7553 98.5766 33.6224C98.8567 33.4896 99.1604 33.414 99.4701 33.4C99.7927 33.3787 100.114 33.4527 100.395 33.6127C100.676 33.7727 100.904 34.0117 101.05 34.3L97.2501 35.88ZM92.6301 40H94.5001V27.5H92.6301V40ZM89.5701 32.7H89.5001C89.2183 32.3849 88.873 32.1329 88.487 31.9606C88.101 31.7882 87.6829 31.6994 87.2601 31.7C86.1673 31.753 85.1367 32.2244 84.3821 33.0166C83.6274 33.8087 83.2064 34.8609 83.2064 35.955C83.2064 37.0491 83.6274 38.1013 84.3821 38.8934C85.1367 39.6856 86.1673 40.157 87.2601 40.21C87.6839 40.2171 88.104 40.1313 88.491 39.9585C88.8781 39.7857 89.2225 39.5302 89.5001 39.21H89.5601V39.82C89.5601 41.45 88.6901 42.32 87.2901 42.32C86.8238 42.3091 86.3713 42.1597 85.9902 41.8908C85.6091 41.6219 85.3167 41.2456 85.1501 40.81L83.5201 41.49C83.8269 42.2364 84.3497 42.874 85.0214 43.3212C85.6931 43.7685 86.4831 44.0048 87.2901 44C89.4801 44 91.2901 42.71 91.2901 39.57V32H89.5701V32.7ZM87.4301 38.58C86.785 38.5231 86.1847 38.2267 85.7474 37.7492C85.31 37.2716 85.0675 36.6475 85.0675 36C85.0675 35.3524 85.31 34.7284 85.7474 34.2508C86.1847 33.7733 86.785 33.4768 87.4301 33.42C87.7499 33.4364 88.0632 33.5167 88.3516 33.656C88.6399 33.7954 88.8974 33.9911 89.1089 34.2315C89.3205 34.4719 89.4818 34.7523 89.5833 35.056C89.6848 35.3597 89.7245 35.6807 89.7001 36C89.7274 36.3207 89.6893 36.6436 89.5883 36.9491C89.4872 37.2547 89.3252 37.5366 89.1121 37.7778C88.8989 38.019 88.6391 38.2144 88.3483 38.3523C88.0575 38.4902 87.7417 38.5676 87.4201 38.58H87.4301ZM111.81 27.5H107.34V40H109.21V35.26H111.82C112.353 35.2983 112.888 35.2264 113.392 35.0487C113.896 34.8711 114.358 34.5915 114.749 34.2275C115.14 33.8635 115.452 33.4227 115.665 32.9328C115.879 32.4429 115.989 31.9143 115.989 31.38C115.989 30.8457 115.879 30.3171 115.665 29.8272C115.452 29.3373 115.14 28.8965 114.749 28.5325C114.358 28.1685 113.896 27.8889 113.392 27.7113C112.888 27.5336 112.353 27.4617 111.82 27.5H111.81ZM111.81 33.5H109.2V29.24H111.85C112.419 29.24 112.965 29.466 113.367 29.8683C113.769 30.2705 113.995 30.8161 113.995 31.385C113.995 31.9539 113.769 32.4995 113.367 32.9017C112.965 33.304 112.419 33.53 111.85 33.53L111.81 33.5ZM123.34 31.7C122.659 31.6593 121.981 31.8184 121.39 32.1577C120.798 32.497 120.319 33.0018 120.01 33.61L121.67 34.3C121.834 33.9983 122.082 33.7508 122.383 33.5874C122.685 33.4241 123.028 33.352 123.37 33.38C123.607 33.3523 123.848 33.3721 124.078 33.4383C124.307 33.5045 124.521 33.6158 124.708 33.7657C124.894 33.9156 125.048 34.101 125.162 34.3112C125.276 34.5214 125.346 34.7522 125.37 34.99V35.12C124.769 34.802 124.1 34.6371 123.42 34.64C121.63 34.64 119.82 35.64 119.82 37.45C119.838 37.8359 119.933 38.2144 120.099 38.563C120.266 38.9117 120.5 39.2234 120.789 39.4798C121.078 39.7362 121.416 39.932 121.782 40.0557C122.148 40.1794 122.535 40.2285 122.92 40.2C123.391 40.2338 123.862 40.1402 124.285 39.9291C124.707 39.718 125.065 39.397 125.32 39H125.38V40H127.18V35.19C127.18 33 125.52 31.73 123.39 31.73L123.34 31.7ZM123.11 38.55C122.5 38.55 121.65 38.24 121.65 37.49C121.65 36.49 122.71 36.16 123.65 36.16C124.244 36.1453 124.831 36.2904 125.35 36.58C125.288 37.1214 125.031 37.622 124.629 37.9895C124.227 38.357 123.705 38.5667 123.16 38.58L123.11 38.55ZM133.74 32L131.6 37.42H131.54L129.32 32H127.32L130.65 39.58L128.75 43.79H130.7L135.82 32H133.74ZM116.93 40H118.8V27.5H116.93V40Z" fill="white"/>
<path d="M20.4401 17.5397C20.1142 17.9308 19.9497 18.4315 19.9801 18.9397V41.0597C19.9497 41.5679 20.1142 42.0686 20.4401 42.4597L20.5101 42.5297L32.9001 30.1497V29.8597L20.5101 17.4697L20.4401 17.5397Z" fill="url(#paint0_linear_682_502)"/>
<path d="M37.0004 34.2797L32.9004 30.1497V29.8597L37.0004 25.7197L37.0904 25.7697L42.0004 28.5597C43.4004 29.3497 43.4004 30.6497 42.0004 31.4497L37.1104 34.2297L37.0004 34.2797Z" fill="url(#paint1_linear_682_502)"/>
<path d="M37.1204 34.22L32.9004 30L20.4404 42.46C20.7258 42.7109 21.0898 42.8541 21.4696 42.8651C21.8494 42.876 22.2211 42.754 22.5204 42.52L37.1304 34.22" fill="url(#paint2_linear_682_502)"/>
<path d="M37.1197 25.7796L22.5097 17.4796C22.2103 17.2456 21.8387 17.1235 21.4589 17.1345C21.0791 17.1454 20.715 17.2887 20.4297 17.5396L32.8997 29.9996L37.1197 25.7796Z" fill="url(#paint3_linear_682_502)"/>
<path opacity="0.2" d="M37.0004 34.1299L22.5104 42.3799C22.2217 42.5957 21.8709 42.7124 21.5104 42.7124C21.1499 42.7124 20.7991 42.5957 20.5104 42.3799L20.4404 42.4499L20.5104 42.5199C20.7985 42.7373 21.1495 42.8549 21.5104 42.8549C21.8713 42.8549 22.2224 42.7373 22.5104 42.5199L37.1204 34.2199L37.0004 34.1299Z" fill="#002100"/>
<path opacity="0.12" d="M20.4401 42.32C20.1142 41.9289 19.9497 41.4282 19.9801 40.92V41.07C19.9497 41.5782 20.1142 42.0789 20.4401 42.47L20.5101 42.4L20.4401 42.32ZM42.0001 31.3L37.0001 34.13L37.0901 34.22L42.0001 31.44C42.2787 31.3091 42.5179 31.1071 42.6935 30.8543C42.869 30.6014 42.9748 30.3068 43.0001 30C42.9439 30.2787 42.8245 30.5408 42.6512 30.7662C42.4778 30.9915 42.2551 31.1742 42.0001 31.3Z" fill="#002100"/>
<path opacity="0.25" d="M22.5107 17.6204L42.0007 28.7004C42.2557 28.8263 42.4784 29.0089 42.6517 29.2343C42.8251 29.4596 42.9445 29.7217 43.0007 30.0004C42.9754 29.6937 42.8696 29.399 42.694 29.1462C42.5185 28.8933 42.2793 28.6913 42.0007 28.5604L22.5107 17.4804C21.1107 16.6904 19.9707 17.3504 19.9707 18.9504V19.1004C20.0007 17.4904 21.1207 16.8304 22.5107 17.6204Z" fill="white"/>
</g>
<defs>
<linearGradient id="paint0_linear_682_502" x1="31.8001" y1="18.7097" x2="15.0201" y2="35.4897" gradientUnits="userSpaceOnUse">
<stop stop-color="#00A0FF"/>
<stop offset="0.01" stop-color="#00A1FF"/>
<stop offset="0.26" stop-color="#00BEFF"/>
<stop offset="0.51" stop-color="#00D2FF"/>
<stop offset="0.76" stop-color="#00DFFF"/>
<stop offset="1" stop-color="#00E3FF"/>
</linearGradient>
<linearGradient id="paint1_linear_682_502" x1="43.8304" y1="29.9997" x2="19.6404" y2="29.9997" gradientUnits="userSpaceOnUse">
<stop stop-color="#FFE000"/>
<stop offset="0.41" stop-color="#FFBD00"/>
<stop offset="0.78" stop-color="#FFA500"/>
<stop offset="1" stop-color="#FF9C00"/>
</linearGradient>
<linearGradient id="paint2_linear_682_502" x1="34.8304" y1="32.3" x2="12.0704" y2="55.05" gradientUnits="userSpaceOnUse">
<stop stop-color="#FF3A44"/>
<stop offset="1" stop-color="#C31162"/>
</linearGradient>
<linearGradient id="paint3_linear_682_502" x1="17.2997" y1="10.1796" x2="27.4597" y2="20.3396" gradientUnits="userSpaceOnUse">
<stop stop-color="#32A071"/>
<stop offset="0.07" stop-color="#2DA771"/>
<stop offset="0.48" stop-color="#15CF74"/>
<stop offset="0.8" stop-color="#06E775"/>
<stop offset="1" stop-color="#00F076"/>
</linearGradient>
<clipPath id="clip0_682_502">
<rect width="155" height="60" fill="white"/>
</clipPath>
</defs>
</svg>
