<svg width="98" height="108" viewBox="0 0 98 108" fill="none" xmlns="http://www.w3.org/2000/svg">
<circle cx="4.6699" cy="78.3235" r="4.6699" fill="#45BC1B"/>
<circle cx="34.0097" cy="78.3235" r="4.6699" fill="#45BC1B"/>
<circle cx="63.3496" cy="78.3235" r="4.6699" fill="#45BC1B"/>
<circle cx="4.6699" cy="102.663" r="4.6699" fill="#45BC1B"/>
<circle cx="34.0097" cy="102.663" r="4.6699" fill="#45BC1B"/>
<circle cx="63.3496" cy="102.663" r="4.6699" fill="#45BC1B"/>
<circle cx="92.6894" cy="102.663" r="4.6699" fill="#45BC1B"/>
<circle cx="92.6894" cy="78.3235" r="4.6699" fill="#45BC1B"/>
<circle cx="92.6894" cy="53.9836" r="4.6699" fill="#45BC1B"/>
<circle cx="92.6894" cy="29.6438" r="4.6699" fill="#45BC1B"/>
<circle cx="92.6894" cy="5.30394" r="4.6699" fill="#45BC1B"/>
<circle cx="63.3496" cy="53.9836" r="4.6699" fill="#45BC1B"/>
<circle cx="34.0097" cy="53.9836" r="4.6699" fill="#45BC1B"/>
<circle cx="4.6699" cy="53.9836" r="4.6699" fill="#45BC1B"/>
<circle cx="4.6699" cy="29.6438" r="4.6699" fill="#45BC1B"/>
<circle cx="4.6699" cy="5.30394" r="4.6699" fill="#45BC1B"/>
<circle cx="34.0097" cy="5.30394" r="4.6699" fill="#45BC1B"/>
<circle cx="63.3496" cy="5.30394" r="4.6699" fill="#45BC1B"/>
<circle cx="34.0097" cy="29.6438" r="4.6699" fill="#45BC1B"/>
<circle cx="63.3496" cy="29.6438" r="4.6699" fill="#45BC1B"/>
</svg>
