<svg width="40" height="41" viewBox="0 0 40 41" fill="none" xmlns="http://www.w3.org/2000/svg">
<g clip-path="url(#clip0_554_384)">
<path d="M20 40.1338C30.7696 40.1338 39.5 31.4033 39.5 20.6338C39.5 9.86424 30.7696 1.13379 20 1.13379C9.23045 1.13379 0.5 9.86424 0.5 20.6338C0.5 31.4033 9.23045 40.1338 20 40.1338Z" stroke="#002100"/>
<path d="M21.722 30.6339V21.5239H24.797L25.256 17.9569H21.722V15.6869C21.722 14.6549 22.011 13.9569 23.489 13.9569H25.378V10.7719C24.467 10.6779 23.552 10.6319 22.636 10.6339C19.919 10.6339 18.066 12.2909 18.066 15.3339V17.9569H15V21.5239H18.067V30.6339H21.722Z" fill="#002100"/>
</g>
<defs>
<clipPath id="clip0_554_384">
<rect width="40" height="40" fill="white" transform="translate(0 0.633789)"/>
</clipPath>
</defs>
</svg>
