<svg width="41" height="41" viewBox="0 0 41 41" fill="none" xmlns="http://www.w3.org/2000/svg">
<path d="M20.5 39.6338C31.2696 39.6338 40 30.9033 40 20.1338C40 9.36424 31.2696 0.633789 20.5 0.633789C9.73045 0.633789 1 9.36424 1 20.1338C1 30.9033 9.73045 39.6338 20.5 39.6338Z" stroke="#002100"/>
<path fill-rule="evenodd" clip-rule="evenodd" d="M20.497 10.1397C17.782 10.1397 17.441 10.1517 16.375 10.1997C15.311 10.2487 14.585 10.4177 13.949 10.6647C13.2818 10.9156 12.6774 11.3091 12.178 11.8177C11.6695 12.3168 11.2761 12.9209 11.025 13.5877C10.778 14.2257 10.609 14.9517 10.56 16.0157C10.512 17.0817 10.5 17.4217 10.5 20.1367C10.5 22.8517 10.512 23.1927 10.56 24.2587C10.609 25.3227 10.778 26.0487 11.025 26.6847C11.2759 27.3518 11.6694 27.9562 12.178 28.4557C12.6772 28.9641 13.2812 29.3576 13.948 29.6087C14.584 29.8557 15.311 30.0247 16.375 30.0737C17.441 30.1217 17.782 30.1337 20.497 30.1337C23.212 30.1337 23.552 30.1217 24.619 30.0737C25.683 30.0247 26.409 29.8557 27.045 29.6087C27.7118 29.3576 28.3158 28.9641 28.815 28.4557C29.3238 27.9566 29.7176 27.3526 29.969 26.6857C30.216 26.0497 30.385 25.3227 30.434 24.2587C30.482 23.1927 30.494 22.8517 30.494 20.1367C30.494 17.4217 30.482 17.0817 30.434 16.0147C30.385 14.9507 30.216 14.2247 29.969 13.5887C29.7179 12.9219 29.3245 12.3178 28.816 11.8187C28.317 11.3095 27.713 10.9153 27.046 10.6637C26.409 10.4167 25.683 10.2477 24.619 10.1987C23.552 10.1507 23.212 10.1387 20.497 10.1387V10.1397ZM20.497 11.9417C23.167 11.9417 23.482 11.9517 24.537 11.9997C25.511 12.0437 26.04 12.2067 26.393 12.3437C26.859 12.5247 27.193 12.7417 27.543 13.0917C27.892 13.4417 28.109 13.7747 28.29 14.2417C28.427 14.5937 28.59 15.1217 28.634 16.0977C28.682 17.1517 28.692 17.4677 28.692 20.1377C28.692 22.8057 28.682 23.1227 28.634 24.1767C28.59 25.1507 28.427 25.6807 28.29 26.0327C28.109 26.4997 27.892 26.8327 27.542 27.1827C27.192 27.5327 26.859 27.7487 26.392 27.9297C26.04 28.0667 25.512 28.2297 24.536 28.2737C23.482 28.3227 23.166 28.3327 20.496 28.3327C17.827 28.3327 17.511 28.3227 16.457 28.2737C15.483 28.2297 14.953 28.0667 14.601 27.9297C14.1666 27.7694 13.7736 27.5138 13.451 27.1817C13.1193 26.8593 12.8641 26.4667 12.704 26.0327C12.567 25.6807 12.404 25.1507 12.36 24.1767C12.311 23.1227 12.301 22.8067 12.301 20.1367C12.301 17.4667 12.311 17.1517 12.36 16.0967C12.404 15.1227 12.567 14.5937 12.704 14.2407C12.885 13.7747 13.102 13.4407 13.452 13.0907C13.802 12.7417 14.134 12.5247 14.601 12.3437C14.953 12.2067 15.483 12.0437 16.457 11.9997C17.511 11.9517 17.827 11.9417 20.497 11.9417Z" fill="#002100"/>
<path fill-rule="evenodd" clip-rule="evenodd" d="M20.4968 23.4686C19.6131 23.4686 18.7656 23.1175 18.1407 22.4927C17.5158 21.8678 17.1648 21.0203 17.1648 20.1366C17.1648 19.2529 17.5158 18.4054 18.1407 17.7805C18.7656 17.1556 19.6131 16.8046 20.4968 16.8046C21.3805 16.8046 22.228 17.1556 22.8529 17.7805C23.4777 18.4054 23.8288 19.2529 23.8288 20.1366C23.8288 21.0203 23.4777 21.8678 22.8529 22.4927C22.228 23.1175 21.3805 23.4686 20.4968 23.4686ZM20.4968 15.0036C19.1353 15.0036 17.8296 15.5444 16.8668 16.5072C15.9041 17.4699 15.3633 18.7756 15.3633 20.1371C15.3633 21.4986 15.9041 22.8043 16.8668 23.767C17.8296 24.7297 19.1353 25.2706 20.4968 25.2706C21.8583 25.2706 23.164 24.7297 24.1267 23.767C25.0894 22.8043 25.6303 21.4986 25.6303 20.1371C25.6303 18.7756 25.0894 17.4699 24.1267 16.5072C23.164 15.5444 21.8583 15.0036 20.4968 15.0036ZM27.0328 14.8006C27.0328 15.1188 26.9064 15.4241 26.6813 15.6491C26.4563 15.8742 26.151 16.0006 25.8328 16.0006C25.5145 16.0006 25.2093 15.8742 24.9843 15.6491C24.7592 15.4241 24.6328 15.1188 24.6328 14.8006C24.6328 14.4823 24.7592 14.1771 24.9843 13.9521C25.2093 13.727 25.5145 13.6006 25.8328 13.6006C26.151 13.6006 26.4563 13.727 26.6813 13.9521C26.9064 14.1771 27.0328 14.4823 27.0328 14.8006Z" fill="#002100"/>
</svg>
