<svg width="40" height="41" viewBox="0 0 40 41" fill="none" xmlns="http://www.w3.org/2000/svg">
<g clip-path="url(#clip0_554_388)">
<path d="M20 40.1338C30.7696 40.1338 39.5 31.4033 39.5 20.6338C39.5 9.86424 30.7696 1.13379 20 1.13379C9.23045 1.13379 0.5 9.86424 0.5 20.6338C0.5 31.4033 9.23045 40.1338 20 40.1338Z" stroke="#002100"/>
<path fill-rule="evenodd" clip-rule="evenodd" d="M29.1955 27.3008H25.7385V21.8868C25.7385 20.5958 25.7145 18.9348 23.9405 18.9348C22.1405 18.9348 21.8635 20.3408 21.8635 21.7928V27.3008H18.4065V16.1678H21.7255V17.6888H21.7715C22.2335 16.8138 23.3615 15.8908 25.0455 15.8908C28.5485 15.8908 29.1955 18.1968 29.1955 21.1938V27.3008ZM14.5075 14.6458C13.9753 14.6458 13.465 14.4344 13.0887 14.0581C12.7124 13.6818 12.501 13.1715 12.501 12.6393C12.501 12.1072 12.7124 11.5968 13.0887 11.2205C13.465 10.8442 13.9753 10.6328 14.5075 10.6328C15.0396 10.6328 15.55 10.8442 15.9263 11.2205C16.3026 11.5968 16.514 12.1072 16.514 12.6393C16.514 13.1715 16.3026 13.6818 15.9263 14.0581C15.55 14.4344 15.0396 14.6458 14.5075 14.6458ZM12.7765 27.3008H16.2365V16.1678H12.7765V27.3008Z" fill="#002100"/>
</g>
<defs>
<clipPath id="clip0_554_388">
<rect width="40" height="40" fill="white" transform="translate(0 0.633789)"/>
</clipPath>
</defs>
</svg>
