<svg width="40" height="41" viewBox="0 0 40 41" fill="none" xmlns="http://www.w3.org/2000/svg">
<g clip-path="url(#clip0_554_392)">
<path d="M20 40.1338C30.7696 40.1338 39.5 31.4033 39.5 20.6338C39.5 9.86424 30.7696 1.13379 20 1.13379C9.23045 1.13379 0.5 9.86424 0.5 20.6338C0.5 31.4033 9.23045 40.1338 20 40.1338Z" stroke="#002100"/>
<path d="M16.29 28.5522C23.837 28.5522 27.965 22.2992 27.965 16.8772C27.965 16.6992 27.965 16.5222 27.953 16.3472C28.7562 15.7657 29.4493 15.0458 30 14.2212C29.2511 14.5532 28.4566 14.771 27.643 14.8672C28.4996 14.3543 29.1408 13.5476 29.447 12.5972C28.6417 13.0751 27.7607 13.412 26.842 13.5932C26.2234 12.935 25.405 12.4991 24.5136 12.3529C23.6222 12.2068 22.7075 12.3586 21.9111 12.7849C21.1147 13.2112 20.4811 13.8881 20.1083 14.7109C19.7355 15.5337 19.6444 16.4564 19.849 17.3362C18.2175 17.2543 16.6215 16.8303 15.1645 16.0915C13.7076 15.3528 12.4222 14.3159 11.392 13.0482C10.867 13.9515 10.7061 15.021 10.9421 16.0387C11.178 17.0565 11.7931 17.9461 12.662 18.5262C12.0091 18.5067 11.3705 18.3304 10.8 18.0122V18.0642C10.8002 19.0117 11.1281 19.9299 11.7281 20.6632C12.3281 21.3965 13.1633 21.8996 14.092 22.0872C13.4878 22.2519 12.8539 22.2758 12.239 22.1572C12.5012 22.9727 13.0117 23.6858 13.6991 24.1968C14.3866 24.7079 15.2166 24.9912 16.073 25.0072C15.2221 25.6757 14.2478 26.17 13.2057 26.4617C12.1637 26.7534 11.0743 26.8368 10 26.7072C11.8766 27.9115 14.0602 28.5503 16.29 28.5472" fill="#002100"/>
</g>
<defs>
<clipPath id="clip0_554_392">
<rect width="40" height="40" fill="white" transform="translate(0 0.633789)"/>
</clipPath>
</defs>
</svg>
