<svg width="179" height="84" viewBox="0 0 179 84" fill="none" xmlns="http://www.w3.org/2000/svg">
<path d="M83 42.1338C83 65.0536 64.4198 83.6338 41.5 83.6338C18.5802 83.6338 0 65.0536 0 42.1338C0 19.214 18.5802 0.633789 41.5 0.633789C64.4198 0.633789 83 19.214 83 42.1338Z" fill="#F5FBF3"/>
<path d="M37.4999 26.6338C36.8399 26.6338 36.5749 25.4538 36.5199 24.9838C36.4606 24.5275 36.5156 24.0636 36.6799 23.6338C36.752 23.4293 36.8762 23.247 37.0401 23.105C37.2041 22.963 37.4021 22.8661 37.6149 22.8238C38.1999 22.7238 38.6149 23.0738 39.1449 23.1938C39.2444 23.2257 39.3506 23.2313 39.4529 23.2101C39.5553 23.1888 39.6504 23.1413 39.729 23.0723C39.8075 23.0033 39.8669 22.9151 39.9012 22.8164C39.9355 22.7176 39.9437 22.6116 39.9249 22.5088C39.7049 21.6488 38.1399 21.6338 37.4999 21.6338C37.4999 20.7038 38.5199 20.5838 39.2499 20.6538C39.6829 20.6956 40.1094 20.7896 40.5199 20.9338C40.7699 21.0188 41.0599 21.2338 41.3349 21.2138C41.7499 21.1788 41.8349 20.7488 41.6549 20.4338C41.2199 19.6938 39.9849 19.6338 39.2499 19.6338C39.2499 18.6338 40.1149 18.4438 40.9449 18.5938C41.3734 18.6782 41.7911 18.8107 42.1899 18.9888C42.4449 19.0988 42.7499 19.3088 43.0299 19.2138C43.7499 18.9938 42.9999 18.2238 42.6799 18.0388C42.4553 17.9149 42.217 17.8175 41.9699 17.7488C41.6999 17.6688 41.3699 17.6988 41.6149 17.3838C41.998 17.0458 42.4733 16.8299 42.9799 16.7638C43.9249 16.5438 45.2299 16.5038 45.4599 17.6938C45.5365 18.3221 45.3857 18.957 45.0349 19.4838C44.1031 21.077 42.95 22.5298 41.6099 23.7988C40.8999 24.5265 40.1306 25.1938 39.3099 25.7938C38.8099 26.1538 38.1499 26.6338 37.4999 26.6338Z" fill="#F5FBF3"/>
<path d="M22.7354 17.3438C22.7141 17.6986 22.7662 18.054 22.8882 18.3879C23.0103 18.7217 23.1998 19.0268 23.4449 19.2843C22.9685 19.4209 22.5421 19.6927 22.2173 20.0669C21.8924 20.4411 21.6832 20.9015 21.6149 21.3923C21.4502 22.5701 21.6918 23.7688 22.2999 24.7908L22.4749 25.0858L22.4964 25.1173L23.2044 26.0703C23.3543 26.2723 23.5465 26.4391 23.7675 26.5593C23.9885 26.6794 24.2331 26.7499 24.4841 26.7659C24.7352 26.7819 24.9867 26.743 25.2212 26.6519C25.4557 26.5607 25.6675 26.4196 25.8419 26.2383C25.8622 26.2171 25.8867 26.2002 25.9138 26.1887C25.9408 26.1772 25.9699 26.1712 25.9994 26.1712C26.0288 26.1712 26.0579 26.1772 26.0849 26.1887C26.112 26.2002 26.1365 26.2171 26.1569 26.2383C26.3312 26.4196 26.543 26.5607 26.7775 26.6519C27.012 26.743 27.2635 26.7819 27.5146 26.7659C27.7656 26.7499 28.0102 26.6794 28.2312 26.5593C28.4522 26.4391 28.6444 26.2723 28.7944 26.0703L29.5024 25.1168L29.5234 25.0853L29.6989 24.7903C30.3072 23.7687 30.5494 22.5704 30.3854 21.3928C30.3369 21.0458 30.2178 20.7124 30.0354 20.4133C29.8529 20.1142 29.611 19.8558 29.3246 19.654C29.0383 19.4521 28.7135 19.3112 28.3705 19.24C28.0274 19.1688 27.6734 19.1687 27.3304 19.2398L26.3799 19.4368H26.3784C26.3934 19.0468 26.4544 18.6268 26.5739 18.2678C26.7189 17.8338 26.9199 17.5728 27.1439 17.4798C27.2357 17.4415 27.3085 17.3682 27.3464 17.2762C27.3842 17.1842 27.3839 17.0809 27.3456 16.989C27.3073 16.8972 27.234 16.8244 27.142 16.7865C27.05 16.7487 26.9467 16.749 26.8549 16.7873C26.3289 17.0068 26.0299 17.5273 25.8624 18.0303L25.8394 18.1013C25.7164 17.8633 25.5573 17.6457 25.3679 17.4563C25.1086 17.1967 24.7971 16.9951 24.454 16.8649C24.1109 16.7348 23.7441 16.679 23.3779 16.7013C23.2107 16.7109 23.0529 16.7815 22.9344 16.8998C22.8159 17.018 22.7449 17.1757 22.7349 17.3428M24.1979 21.2503C24.0244 21.2848 23.8654 21.4068 23.7659 21.6393C23.6644 21.8763 23.6284 22.2278 23.7379 22.6663C23.7604 22.7622 23.7442 22.8631 23.693 22.9472C23.6417 23.0313 23.5594 23.0919 23.4638 23.1158C23.3682 23.1397 23.2671 23.125 23.1822 23.075C23.0974 23.0249 23.0357 22.9435 23.0104 22.8483C22.8704 22.2873 22.8969 21.7633 23.0764 21.3438C23.2579 20.9203 23.5989 20.6048 24.0509 20.5148C24.0998 20.5032 24.1507 20.5016 24.2003 20.5101C24.2499 20.5186 24.2973 20.537 24.3396 20.5642C24.382 20.5914 24.4184 20.6268 24.4468 20.6684C24.4752 20.71 24.4949 20.7569 24.5047 20.8062C24.5146 20.8556 24.5144 20.9064 24.5042 20.9557C24.494 21.005 24.474 21.0517 24.4454 21.0931C24.4168 21.1345 24.3801 21.1697 24.3376 21.1966C24.295 21.2235 24.2475 21.2421 24.1979 21.2503Z" fill="#F5FBF3"/>
<path d="M36.4999 20.1338C31.9999 21.1338 30.9499 24.2188 29.9099 26.8038L30.8549 27.1338L31.3299 25.9838C31.5699 26.0688 31.8199 26.1338 31.9999 26.1338C37.4999 26.1338 38.9999 17.6338 38.9999 17.6338C38.4999 18.6338 34.9999 18.7588 32.4999 19.2588C29.9999 19.7588 28.9999 21.8838 28.9999 22.8838C28.9999 23.8838 29.8749 24.7588 29.8749 24.7588C31.4999 20.1338 36.4999 20.1338 36.4999 20.1338Z" fill="#F5FBF3"/>
<path d="M47.775 19.036C48.2575 18.781 48.6614 18.3994 48.9433 17.9321C49.2252 17.4648 49.3744 16.9295 49.3749 16.3838C49.3749 16.2843 49.3353 16.189 49.265 16.1186C49.1947 16.0483 49.0993 16.0088 48.9999 16.0088H48.6249C48.0888 16.009 47.5625 16.1528 47.1009 16.4254C46.6392 16.6979 46.259 17.0892 45.9999 17.5585C45.7407 17.0892 45.3605 16.6979 44.8989 16.4254C44.4372 16.1528 43.911 16.009 43.3749 16.0088H42.9999C42.9004 16.0088 42.805 16.0483 42.7347 16.1186C42.6644 16.189 42.6249 16.2843 42.6249 16.3838C42.6249 16.4832 42.6644 16.5786 42.7347 16.649C42.805 16.7193 42.9004 16.7588 42.9999 16.7588H43.3749C43.9098 16.7595 44.4271 16.9505 44.8341 17.2976C45.2412 17.6448 45.5115 18.1253 45.5967 18.6535C44.6041 18.7506 43.6803 19.2041 42.9964 19.93C42.3124 20.6559 41.9146 21.605 41.8766 22.6016C41.8385 23.5982 42.1629 24.5749 42.7896 25.3508C43.4163 26.1266 44.3028 26.6492 45.2851 26.8217C46.2675 26.9942 47.279 26.8049 48.1325 26.289C48.9861 25.773 49.6237 24.9653 49.9275 24.0153C50.2313 23.0654 50.1807 22.0375 49.7849 21.1221C49.3892 20.2066 48.6751 19.4655 47.775 19.036ZM48.5935 16.7588C48.505 17.2774 48.2379 17.7488 47.8385 18.0913C47.439 18.4337 46.9323 18.6256 46.4063 18.6338C46.4947 18.1151 46.7618 17.6437 47.1613 17.3013C47.5607 16.9589 48.0674 16.7669 48.5935 16.7588ZM48.6197 23.1957C48.5232 23.7393 48.2621 24.2402 47.8717 24.6306C47.4813 25.0211 46.9804 25.2822 46.4367 25.3786C46.4163 25.382 46.3956 25.3837 46.3749 25.3838C46.2808 25.3836 46.1903 25.3482 46.1212 25.2844C46.0521 25.2207 46.0094 25.1333 46.0017 25.0396C45.994 24.9459 46.0217 24.8527 46.0795 24.7785C46.1372 24.7043 46.2207 24.6545 46.3134 24.6389C46.7037 24.5696 47.0632 24.3822 47.3434 24.1019C47.6237 23.8217 47.8111 23.4621 47.8805 23.0719C47.8977 22.9746 47.9527 22.888 48.0334 22.8309C48.1141 22.7739 48.2141 22.751 48.3116 22.7674C48.4091 22.7837 48.4962 22.8378 48.554 22.918C48.6118 22.9982 48.6351 23.098 48.6197 23.1957Z" fill="#F5FBF3"/>
<path d="M24.4237 40.2776C24.4237 39.7159 24.879 39.2606 25.4407 39.2606H47.1356C47.6972 39.2606 48.1525 39.7159 48.1525 40.2776C48.1525 40.8392 47.6972 41.2945 47.1356 41.2945H25.4407C24.879 41.2945 24.4237 40.8392 24.4237 40.2776Z" fill="#45BC1B"/>
<path d="M19 26.7185C19 26.1569 19.4553 25.7016 20.0169 25.7016H51.8814C52.443 25.7016 52.8983 26.1569 52.8983 26.7185C52.8983 27.2802 52.443 27.7355 51.8814 27.7355H20.0169C19.4553 27.7355 19 27.2802 19 26.7185Z" fill="#45BC1B"/>
<path d="M50.4768 28.8242C50.146 28.6938 49.9835 28.3199 50.1139 27.989L52.2817 22.4903C52.5564 21.7937 53.3438 21.4515 54.0405 21.7262C54.7371 22.0009 55.0793 22.7883 54.8046 23.4849L52.898 28.3212C52.6233 29.0179 51.8359 29.36 51.1392 29.0853L50.4768 28.8242Z" fill="#45BC1B"/>
<path d="M53 22.529C53 22.0345 53.4009 21.6337 53.8954 21.6337H62.5C63.3284 21.6337 64 22.3053 64 23.1337C64 23.9621 63.3284 24.6337 62.5 24.6337H54.5C53.6716 24.6337 53 23.9621 53 23.1337V22.529Z" fill="#45BC1B"/>
<path d="M25.1017 50.8201C25.1017 50.0712 25.7088 49.4641 26.4576 49.4641H52.8983C53.6472 49.4641 54.2542 50.0712 54.2542 50.8201C54.2542 51.5689 53.6472 52.176 52.8983 52.176H26.4576C25.7088 52.176 25.1017 51.5689 25.1017 50.8201Z" fill="#45BC1B"/>
<path d="M24.4237 45.3963C24.4237 44.6475 25.0308 44.0404 25.7797 44.0404H45.4407C46.1895 44.0404 46.7966 44.6475 46.7966 45.3963C46.7966 46.1452 46.1895 46.7523 45.4407 46.7523H25.7797C25.0308 46.7523 24.4237 46.1452 24.4237 45.3963Z" fill="#45BC1B"/>
<path d="M45.4494 46.5348C44.7381 46.3007 44.3512 45.5342 44.5853 44.8229L50.7323 26.1475C50.9664 25.4362 51.7328 25.0494 52.4441 25.2835C53.1555 25.5176 53.5423 26.2841 53.3082 26.9954L47.1613 45.6708C46.9271 46.3821 46.1607 46.7689 45.4494 46.5348Z" fill="#45BC1B"/>
<path d="M27.1356 51.9553C27.1356 52.0772 27.0368 52.176 26.9149 52.176C25.539 52.176 24.4237 51.0607 24.4237 49.6849L24.4237 45.3963C24.4237 44.6475 25.0308 44.0404 25.7797 44.0404C26.5285 44.0404 27.1356 44.6475 27.1356 45.3963V51.9553Z" fill="#45BC1B"/>
<path d="M31.8814 57.9048C31.8814 59.9642 30.2119 61.6336 28.1525 61.6336C26.0932 61.6336 24.4237 59.9642 24.4237 57.9048C24.4237 55.8454 26.0932 54.176 28.1525 54.176C30.2119 54.176 31.8814 55.8454 31.8814 57.9048Z" fill="#45BC1B"/>
<path d="M49.5085 57.9048C49.5085 59.9642 47.839 61.6336 45.7797 61.6336C43.7203 61.6336 42.0508 59.9642 42.0508 57.9048C42.0508 55.8454 43.7203 54.176 45.7797 54.176C47.839 54.176 49.5085 55.8454 49.5085 57.9048Z" fill="#45BC1B"/>
<path d="M19 30.4472C19 30.0728 19.3035 29.7692 19.678 29.7692H41.3729C41.7473 29.7692 42.0508 30.0728 42.0508 30.4472C42.0508 30.8216 41.7473 31.1251 41.3729 31.1251H19.678C19.3035 31.1251 19 30.8216 19 30.4472Z" fill="#45BC1B"/>
<path d="M19 33.837C19 33.4626 19.3035 33.159 19.678 33.159H41.3729C41.7473 33.159 42.0508 33.4626 42.0508 33.837C42.0508 34.2114 41.7473 34.515 41.3729 34.515H19.678C19.3035 34.515 19 34.2114 19 33.837Z" fill="#45BC1B"/>
<path d="M19 37.2268C19 36.8524 19.3035 36.5489 19.678 36.5489H41.3729C41.7473 36.5489 42.0508 36.8524 42.0508 37.2268C42.0508 37.6013 41.7473 37.9048 41.3729 37.9048H19.678C19.3035 37.9048 19 37.6013 19 37.2268Z" fill="#45BC1B"/>
<path d="M60.81 48.8438C60.45 48.8438 60.17 48.7438 59.97 48.5438C59.77 48.3238 59.67 48.0238 59.67 47.6438V28.4738C59.67 28.0738 59.77 27.7738 59.97 27.5738C60.17 27.3738 60.45 27.2738 60.81 27.2738C61.13 27.2738 61.38 27.3438 61.56 27.4838C61.76 27.6038 61.94 27.8138 62.1 28.1138L70.32 43.5938H69.42L77.61 28.1138C77.77 27.8138 77.94 27.6038 78.12 27.4838C78.3 27.3438 78.56 27.2738 78.9 27.2738C79.24 27.2738 79.51 27.3738 79.71 27.5738C79.91 27.7738 80.01 28.0738 80.01 28.4738V47.6438C80.01 48.0238 79.91 48.3238 79.71 48.5438C79.53 48.7438 79.25 48.8438 78.87 48.8438C78.51 48.8438 78.23 48.7438 78.03 48.5438C77.83 48.3238 77.73 48.0238 77.73 47.6438V30.7838H78.45L70.95 44.8538C70.81 45.1138 70.66 45.3038 70.5 45.4238C70.36 45.5238 70.15 45.5738 69.87 45.5738C69.59 45.5738 69.37 45.5138 69.21 45.3938C69.05 45.2738 68.91 45.0938 68.79 44.8538L61.2 30.7538H61.92V47.6438C61.92 48.0238 61.82 48.3238 61.62 48.5438C61.44 48.7438 61.17 48.8438 60.81 48.8438ZM84.8241 48.8438C84.5041 48.8438 84.2441 48.7738 84.0441 48.6338C83.8641 48.4738 83.7541 48.2738 83.7141 48.0338C83.6941 47.7738 83.7541 47.4838 83.8941 47.1638L92.1441 28.3838C92.3241 27.9838 92.5341 27.7038 92.7741 27.5438C93.0341 27.3638 93.3141 27.2738 93.6141 27.2738C93.9141 27.2738 94.1841 27.3638 94.4241 27.5438C94.6841 27.7038 94.8941 27.9838 95.0541 28.3838L103.334 47.1638C103.494 47.4838 103.554 47.7738 103.514 48.0338C103.494 48.2938 103.394 48.4938 103.214 48.6338C103.034 48.7738 102.784 48.8438 102.464 48.8438C102.104 48.8438 101.814 48.7538 101.594 48.5738C101.374 48.3738 101.194 48.0938 101.054 47.7338L98.8341 42.6038L100.034 43.2338H87.1341L88.3641 42.6038L86.1741 47.7338C85.9941 48.1138 85.8041 48.3938 85.6041 48.5738C85.4041 48.7538 85.1441 48.8438 84.8241 48.8438ZM93.5841 30.3638L88.7541 41.7338L88.0341 41.1638H99.1341L98.4741 41.7338L93.6441 30.3638H93.5841ZM108.36 48.8438C107.96 48.8438 107.65 48.7338 107.43 48.5138C107.23 48.2738 107.13 47.9538 107.13 47.5538V28.7438C107.13 28.3238 107.24 28.0138 107.46 27.8138C107.68 27.5938 107.99 27.4838 108.39 27.4838H115.5C117.76 27.4838 119.5 28.0138 120.72 29.0738C121.94 30.1338 122.55 31.6438 122.55 33.6038C122.55 34.8438 122.27 35.9238 121.71 36.8438C121.17 37.7438 120.37 38.4338 119.31 38.9138C118.25 39.3738 116.98 39.6038 115.5 39.6038L115.8 39.2138H116.4C117.18 39.2138 117.86 39.4138 118.44 39.8138C119.02 40.2138 119.55 40.8538 120.03 41.7338L122.91 47.1038C123.07 47.3838 123.14 47.6638 123.12 47.9438C123.12 48.2038 123.03 48.4238 122.85 48.6038C122.67 48.7638 122.41 48.8438 122.07 48.8438C121.73 48.8438 121.45 48.7638 121.23 48.6038C121.01 48.4438 120.82 48.2138 120.66 47.9138L117.39 41.8538C116.93 40.9938 116.4 40.4238 115.8 40.1438C115.2 39.8438 114.41 39.6938 113.43 39.6938H109.59V47.5538C109.59 47.9538 109.49 48.2738 109.29 48.5138C109.09 48.7338 108.78 48.8438 108.36 48.8438ZM109.59 37.7438H115.14C116.78 37.7438 118.02 37.4038 118.86 36.7238C119.7 36.0238 120.12 34.9838 120.12 33.6038C120.12 32.2638 119.7 31.2538 118.86 30.5738C118.02 29.8738 116.78 29.5238 115.14 29.5238H109.59V37.7438ZM128.428 48.8438C128.028 48.8438 127.718 48.7338 127.498 48.5138C127.298 48.2738 127.198 47.9538 127.198 47.5538V28.5338C127.198 28.1138 127.298 27.8038 127.498 27.6038C127.718 27.3838 128.028 27.2738 128.428 27.2738C128.828 27.2738 129.128 27.3838 129.328 27.6038C129.548 27.8038 129.658 28.1138 129.658 28.5338V37.0838H129.718L139.498 27.9638C139.738 27.7238 139.978 27.5538 140.218 27.4538C140.458 27.3338 140.718 27.2738 140.998 27.2738C141.378 27.2738 141.648 27.3638 141.808 27.5438C141.988 27.7238 142.058 27.9438 142.018 28.2038C141.978 28.4638 141.838 28.7138 141.598 28.9538L131.368 38.4338L131.398 37.1138L142.078 46.9838C142.378 47.2638 142.538 47.5538 142.558 47.8538C142.578 48.1338 142.488 48.3738 142.288 48.5738C142.108 48.7538 141.828 48.8438 141.448 48.8438C141.148 48.8438 140.888 48.7738 140.668 48.6338C140.468 48.5138 140.238 48.3238 139.978 48.0638L129.718 38.6738H129.658V47.5538C129.658 47.9538 129.558 48.2738 129.358 48.5138C129.158 48.7338 128.848 48.8438 128.428 48.8438ZM147.298 48.6338C146.858 48.6338 146.518 48.5238 146.278 48.3038C146.058 48.0638 145.948 47.7238 145.948 47.2838V28.8338C145.948 28.3938 146.058 28.0638 146.278 27.8438C146.518 27.6038 146.858 27.4838 147.298 27.4838H158.458C158.798 27.4838 159.058 27.5738 159.238 27.7538C159.418 27.9338 159.508 28.1838 159.508 28.5038C159.508 28.8438 159.418 29.1038 159.238 29.2838C159.058 29.4638 158.798 29.5538 158.458 29.5538H148.348V36.8738H157.828C158.168 36.8738 158.428 36.9638 158.608 37.1438C158.788 37.3038 158.878 37.5538 158.878 37.8938C158.878 38.2338 158.788 38.4938 158.608 38.6738C158.428 38.8538 158.168 38.9438 157.828 38.9438H148.348V46.5638H158.458C158.798 46.5638 159.058 46.6538 159.238 46.8338C159.418 47.0138 159.508 47.2638 159.508 47.5838C159.508 47.9238 159.418 48.1838 159.238 48.3638C159.058 48.5438 158.798 48.6338 158.458 48.6338H147.298ZM169.477 48.8438C169.097 48.8438 168.797 48.7338 168.577 48.5138C168.357 48.2738 168.247 47.9538 168.247 47.5538V29.6138H161.497C161.137 29.6138 160.857 29.5138 160.657 29.3138C160.457 29.1138 160.357 28.8538 160.357 28.5338C160.357 28.1938 160.457 27.9338 160.657 27.7538C160.857 27.5738 161.137 27.4838 161.497 27.4838H177.487C177.847 27.4838 178.127 27.5738 178.327 27.7538C178.527 27.9338 178.627 28.1938 178.627 28.5338C178.627 28.8738 178.527 29.1438 178.327 29.3438C178.127 29.5238 177.847 29.6138 177.487 29.6138H170.737V47.5538C170.737 47.9538 170.627 48.2738 170.407 48.5138C170.207 48.7338 169.897 48.8438 169.477 48.8438Z" fill="#002100"/>
<path d="M133.05 62.7318C132.882 62.7318 132.747 62.6945 132.644 62.6198C132.551 62.5451 132.495 62.4425 132.476 62.3118C132.457 62.1811 132.485 62.0365 132.56 61.8778L136.382 53.2258C136.466 53.0298 136.573 52.8898 136.704 52.8058C136.835 52.7125 136.979 52.6658 137.138 52.6658C137.297 52.6658 137.437 52.7125 137.558 52.8058C137.689 52.8898 137.801 53.0298 137.894 53.2258L141.716 61.8778C141.791 62.0365 141.819 62.1858 141.8 62.3258C141.791 62.4565 141.739 62.5591 141.646 62.6338C141.553 62.6991 141.422 62.7318 141.254 62.7318C141.067 62.7318 140.918 62.6851 140.806 62.5918C140.694 62.4891 140.596 62.3445 140.512 62.1578L139.518 59.8338L140.12 60.1698H134.128L134.73 59.8338L133.736 62.1578C133.652 62.3631 133.559 62.5125 133.456 62.6058C133.353 62.6898 133.218 62.7318 133.05 62.7318ZM137.11 54.2338L134.926 59.3998L134.59 59.1058H139.658L139.336 59.3998L137.138 54.2338H137.11ZM145.546 62.7598C145.126 62.7598 144.701 62.7131 144.272 62.6198C143.852 62.5171 143.455 62.3445 143.082 62.1018C142.979 62.0365 142.905 61.9571 142.858 61.8638C142.821 61.7611 142.807 61.6631 142.816 61.5698C142.835 61.4671 142.877 61.3785 142.942 61.3038C143.007 61.2291 143.087 61.1871 143.18 61.1778C143.283 61.1591 143.39 61.1825 143.502 61.2478C143.866 61.4531 144.216 61.5978 144.552 61.6818C144.897 61.7658 145.238 61.8078 145.574 61.8078C146.087 61.8078 146.475 61.7145 146.736 61.5278C146.997 61.3411 147.128 61.0938 147.128 60.7858C147.128 60.5245 147.039 60.3238 146.862 60.1838C146.694 60.0345 146.428 59.9225 146.064 59.8478L144.762 59.5818C144.183 59.4511 143.745 59.2365 143.446 58.9378C143.157 58.6298 143.012 58.2378 143.012 57.7618C143.012 57.3418 143.124 56.9778 143.348 56.6698C143.581 56.3525 143.903 56.1098 144.314 55.9418C144.725 55.7738 145.196 55.6898 145.728 55.6898C146.139 55.6898 146.526 55.7458 146.89 55.8578C147.263 55.9605 147.599 56.1191 147.898 56.3338C148.01 56.3991 148.08 56.4831 148.108 56.5858C148.145 56.6791 148.15 56.7771 148.122 56.8798C148.103 56.9731 148.061 57.0525 147.996 57.1178C147.931 57.1831 147.847 57.2251 147.744 57.2438C147.641 57.2531 147.529 57.2251 147.408 57.1598C147.137 56.9731 146.857 56.8425 146.568 56.7678C146.288 56.6838 146.008 56.6418 145.728 56.6418C145.224 56.6418 144.841 56.7398 144.58 56.9358C144.328 57.1318 144.202 57.3885 144.202 57.7058C144.202 57.9485 144.277 58.1491 144.426 58.3078C144.585 58.4665 144.832 58.5831 145.168 58.6578L146.47 58.9238C147.077 59.0545 147.534 59.2645 147.842 59.5538C148.15 59.8338 148.304 60.2165 148.304 60.7018C148.304 61.3365 148.052 61.8405 147.548 62.2138C147.053 62.5778 146.386 62.7598 145.546 62.7598ZM152.313 62.7598C151.893 62.7598 151.469 62.7131 151.039 62.6198C150.619 62.5171 150.223 62.3445 149.849 62.1018C149.747 62.0365 149.672 61.9571 149.625 61.8638C149.588 61.7611 149.574 61.6631 149.583 61.5698C149.602 61.4671 149.644 61.3785 149.709 61.3038C149.775 61.2291 149.854 61.1871 149.947 61.1778C150.05 61.1591 150.157 61.1825 150.269 61.2478C150.633 61.4531 150.983 61.5978 151.319 61.6818C151.665 61.7658 152.005 61.8078 152.341 61.8078C152.855 61.8078 153.242 61.7145 153.503 61.5278C153.765 61.3411 153.895 61.0938 153.895 60.7858C153.895 60.5245 153.807 60.3238 153.629 60.1838C153.461 60.0345 153.195 59.9225 152.831 59.8478L151.529 59.5818C150.951 59.4511 150.512 59.2365 150.213 58.9378C149.924 58.6298 149.779 58.2378 149.779 57.7618C149.779 57.3418 149.891 56.9778 150.115 56.6698C150.349 56.3525 150.671 56.1098 151.081 55.9418C151.492 55.7738 151.963 55.6898 152.495 55.6898C152.906 55.6898 153.293 55.7458 153.657 55.8578C154.031 55.9605 154.367 56.1191 154.665 56.3338C154.777 56.3991 154.847 56.4831 154.875 56.5858C154.913 56.6791 154.917 56.7771 154.889 56.8798C154.871 56.9731 154.829 57.0525 154.763 57.1178C154.698 57.1831 154.614 57.2251 154.511 57.2438C154.409 57.2531 154.297 57.2251 154.175 57.1598C153.905 56.9731 153.625 56.8425 153.335 56.7678C153.055 56.6838 152.775 56.6418 152.495 56.6418C151.991 56.6418 151.609 56.7398 151.347 56.9358C151.095 57.1318 150.969 57.3885 150.969 57.7058C150.969 57.9485 151.044 58.1491 151.193 58.3078C151.352 58.4665 151.599 58.5831 151.935 58.6578L153.237 58.9238C153.844 59.0545 154.301 59.2645 154.609 59.5538C154.917 59.8338 155.071 60.2165 155.071 60.7018C155.071 61.3365 154.819 61.8405 154.315 62.2138C153.821 62.5778 153.153 62.7598 152.313 62.7598ZM157.359 62.7038C157.163 62.7038 157.009 62.6431 156.897 62.5218C156.785 62.4005 156.729 62.2325 156.729 62.0178V56.4318C156.729 56.2078 156.785 56.0398 156.897 55.9278C157.009 55.8065 157.163 55.7458 157.359 55.7458C157.564 55.7458 157.723 55.8065 157.835 55.9278C157.947 56.0398 158.003 56.2078 158.003 56.4318V62.0178C158.003 62.2325 157.947 62.4005 157.835 62.5218C157.732 62.6431 157.574 62.7038 157.359 62.7038ZM157.359 54.2338C157.107 54.2338 156.906 54.1685 156.757 54.0378C156.617 53.8978 156.547 53.7158 156.547 53.4918C156.547 53.2491 156.617 53.0671 156.757 52.9458C156.906 52.8151 157.107 52.7498 157.359 52.7498C157.63 52.7498 157.83 52.8151 157.961 52.9458C158.101 53.0671 158.171 53.2491 158.171 53.4918C158.171 53.7158 158.101 53.8978 157.961 54.0378C157.83 54.1685 157.63 54.2338 157.359 54.2338ZM162.403 62.7598C161.983 62.7598 161.559 62.7131 161.129 62.6198C160.709 62.5171 160.313 62.3445 159.939 62.1018C159.837 62.0365 159.762 61.9571 159.715 61.8638C159.678 61.7611 159.664 61.6631 159.673 61.5698C159.692 61.4671 159.734 61.3785 159.799 61.3038C159.865 61.2291 159.944 61.1871 160.037 61.1778C160.14 61.1591 160.247 61.1825 160.359 61.2478C160.723 61.4531 161.073 61.5978 161.409 61.6818C161.755 61.7658 162.095 61.8078 162.431 61.8078C162.945 61.8078 163.332 61.7145 163.593 61.5278C163.855 61.3411 163.985 61.0938 163.985 60.7858C163.985 60.5245 163.897 60.3238 163.719 60.1838C163.551 60.0345 163.285 59.9225 162.921 59.8478L161.619 59.5818C161.041 59.4511 160.602 59.2365 160.303 58.9378C160.014 58.6298 159.869 58.2378 159.869 57.7618C159.869 57.3418 159.981 56.9778 160.205 56.6698C160.439 56.3525 160.761 56.1098 161.171 55.9418C161.582 55.7738 162.053 55.6898 162.585 55.6898C162.996 55.6898 163.383 55.7458 163.747 55.8578C164.121 55.9605 164.457 56.1191 164.755 56.3338C164.867 56.3991 164.937 56.4831 164.965 56.5858C165.003 56.6791 165.007 56.7771 164.979 56.8798C164.961 56.9731 164.919 57.0525 164.853 57.1178C164.788 57.1831 164.704 57.2251 164.601 57.2438C164.499 57.2531 164.387 57.2251 164.265 57.1598C163.995 56.9731 163.715 56.8425 163.425 56.7678C163.145 56.6838 162.865 56.6418 162.585 56.6418C162.081 56.6418 161.699 56.7398 161.437 56.9358C161.185 57.1318 161.059 57.3885 161.059 57.7058C161.059 57.9485 161.134 58.1491 161.283 58.3078C161.442 58.4665 161.689 58.5831 162.025 58.6578L163.327 58.9238C163.934 59.0545 164.391 59.2645 164.699 59.5538C165.007 59.8338 165.161 60.2165 165.161 60.7018C165.161 61.3365 164.909 61.8405 164.405 62.2138C163.911 62.5778 163.243 62.7598 162.403 62.7598ZM169.579 62.7598C169.028 62.7598 168.566 62.6618 168.193 62.4658C167.829 62.2698 167.553 61.9851 167.367 61.6118C167.189 61.2385 167.101 60.7811 167.101 60.2398V56.7958H166.205C166.037 56.7958 165.906 56.7538 165.813 56.6698C165.719 56.5765 165.673 56.4551 165.673 56.3058C165.673 56.1471 165.719 56.0258 165.813 55.9418C165.906 55.8578 166.037 55.8158 166.205 55.8158H167.101V54.2898C167.101 54.0751 167.157 53.9165 167.269 53.8138C167.381 53.7018 167.539 53.6458 167.745 53.6458C167.95 53.6458 168.104 53.7018 168.207 53.8138C168.319 53.9165 168.375 54.0751 168.375 54.2898V55.8158H170.069C170.246 55.8158 170.381 55.8578 170.475 55.9418C170.568 56.0258 170.615 56.1471 170.615 56.3058C170.615 56.4551 170.568 56.5765 170.475 56.6698C170.381 56.7538 170.246 56.7958 170.069 56.7958H168.375V60.1278C168.375 60.6411 168.482 61.0285 168.697 61.2898C168.911 61.5511 169.266 61.6818 169.761 61.6818C169.938 61.6818 170.087 61.6678 170.209 61.6398C170.33 61.6025 170.437 61.5838 170.531 61.5838C170.615 61.5745 170.685 61.6025 170.741 61.6678C170.806 61.7331 170.839 61.8545 170.839 62.0318C170.839 62.1625 170.815 62.2838 170.769 62.3958C170.731 62.4985 170.652 62.5685 170.531 62.6058C170.419 62.6431 170.269 62.6758 170.083 62.7038C169.896 62.7411 169.728 62.7598 169.579 62.7598Z" fill="#45BC1B"/>
</svg>
