<svg width="61" height="29" viewBox="0 0 61 29" fill="none" xmlns="http://www.w3.org/2000/svg">
<path d="M28.3439 14.5C28.3439 22.5081 21.9989 29 14.172 29C6.34501 29 0 22.5081 0 14.5C0 6.49187 6.34501 0 14.172 0C21.9989 0 28.3439 6.49187 28.3439 14.5Z" fill="#45BC1B"/>
<path d="M12.806 9.08434C12.5806 9.08434 12.4901 8.67205 12.4713 8.50783C12.4511 8.3484 12.4699 8.18632 12.526 8.03615C12.5506 7.96468 12.593 7.90101 12.649 7.85139C12.705 7.80177 12.7726 7.76791 12.8453 7.75313C13.045 7.71819 13.1868 7.84048 13.3678 7.88241C13.4018 7.89357 13.438 7.89553 13.473 7.88809C13.5079 7.88066 13.5404 7.86408 13.5672 7.83997C13.5941 7.81586 13.6143 7.78505 13.626 7.75054C13.6378 7.71604 13.6405 7.67901 13.6341 7.64307C13.559 7.34259 13.0246 7.33735 12.806 7.33735C12.806 7.01241 13.1543 6.97048 13.4036 6.99494C13.5515 7.00956 13.6971 7.0424 13.8373 7.09277C13.9227 7.12247 14.0217 7.19759 14.1156 7.1906C14.2573 7.17837 14.2864 7.02813 14.2249 6.91807C14.0764 6.65952 13.6546 6.63855 13.4036 6.63855C13.4036 6.28916 13.699 6.22277 13.9824 6.27518C14.1288 6.30466 14.2714 6.35096 14.4076 6.41319C14.4947 6.45163 14.5988 6.525 14.6945 6.49181C14.9403 6.41494 14.6842 6.1459 14.5749 6.08126C14.4982 6.03796 14.4169 6.00396 14.3325 5.97994C14.2403 5.95199 14.1276 5.96247 14.2112 5.85241C14.3421 5.73432 14.5044 5.65888 14.6774 5.63578C15.0001 5.55892 15.4457 5.54494 15.5243 5.96072C15.5505 6.18024 15.499 6.40209 15.3791 6.58614C15.061 7.14279 14.6672 7.65041 14.2095 8.0938C13.9671 8.34806 13.7044 8.58122 13.4241 8.79084C13.2534 8.91663 13.028 9.08434 12.806 9.08434Z" fill="#AB3838"/>
<path d="M7.76402 5.83843C7.75677 5.96241 7.77454 6.08658 7.81622 6.20323C7.85791 6.31987 7.92261 6.42649 8.00631 6.51644C7.84365 6.56416 7.69802 6.65915 7.58709 6.78989C7.47616 6.92062 7.4047 7.08149 7.38138 7.25297C7.32513 7.66448 7.40764 8.08331 7.6153 8.4404L7.67506 8.54347L7.6824 8.55448L7.92418 8.88745C7.97539 8.95802 8.04102 9.01633 8.1165 9.0583C8.19197 9.10028 8.27549 9.12492 8.36122 9.13051C8.44695 9.13609 8.53285 9.12249 8.61292 9.09066C8.69299 9.05882 8.76532 9.0095 8.82487 8.94615C8.83183 8.93874 8.84018 8.93285 8.84942 8.92882C8.85867 8.9248 8.86861 8.92272 8.87865 8.92272C8.8887 8.92272 8.89864 8.9248 8.90788 8.92882C8.91712 8.93285 8.92548 8.93874 8.93244 8.94615C8.99199 9.0095 9.06431 9.05882 9.14439 9.09066C9.22446 9.12249 9.31035 9.13609 9.39609 9.13051C9.48182 9.12492 9.56533 9.10028 9.64081 9.0583C9.71629 9.01633 9.78192 8.95802 9.83313 8.88745L10.0749 8.5543L10.0821 8.5433L10.142 8.44022C10.3498 8.0833 10.4325 7.6646 10.3764 7.25314C10.3599 7.13191 10.3192 7.01543 10.2569 6.91093C10.1946 6.80642 10.112 6.71612 10.0142 6.6456C9.91642 6.57508 9.80551 6.52585 9.68837 6.50096C9.57122 6.47607 9.45033 6.47605 9.33318 6.50089L9.00859 6.56972H9.00808C9.0132 6.43346 9.03403 6.28671 9.07484 6.16128C9.12436 6.00964 9.193 5.91845 9.26949 5.88595C9.30085 5.87256 9.32573 5.84697 9.33865 5.81482C9.35157 5.78266 9.35147 5.74657 9.33839 5.71448C9.3253 5.6824 9.30029 5.65695 9.26886 5.64373C9.23743 5.63051 9.20216 5.6306 9.1708 5.64399C8.99117 5.72069 8.88907 5.90255 8.83187 6.0783L8.82401 6.1031C8.78201 6.01994 8.7277 5.94393 8.663 5.87774C8.57445 5.78703 8.46808 5.7166 8.35092 5.67112C8.23377 5.62564 8.1085 5.60615 7.98343 5.61395C7.92635 5.61731 7.87246 5.64199 7.83199 5.6833C7.79151 5.72462 7.76727 5.77969 7.76385 5.83808M8.26345 7.20336C8.2042 7.21541 8.14991 7.25804 8.11593 7.33927C8.08127 7.42208 8.06897 7.54489 8.10637 7.6981C8.11405 7.73161 8.10855 7.76687 8.09103 7.79625C8.07352 7.82564 8.04541 7.8468 8.01277 7.85515C7.98014 7.8635 7.9456 7.85838 7.91663 7.84089C7.88765 7.82341 7.86657 7.79496 7.85793 7.76169C7.81012 7.56568 7.81917 7.3826 7.88047 7.23602C7.94245 7.08805 8.0589 6.97782 8.21325 6.94637C8.22998 6.94233 8.24733 6.94178 8.26428 6.94475C8.28122 6.94771 8.2974 6.95414 8.31186 6.96364C8.32633 6.97314 8.33877 6.98553 8.34846 7.00005C8.35815 7.01458 8.36488 7.03095 8.36825 7.0482C8.37162 7.06544 8.37156 7.0832 8.36808 7.10043C8.3646 7.11765 8.35777 7.13398 8.34799 7.14844C8.33821 7.1629 8.32569 7.1752 8.31116 7.1846C8.29664 7.19401 8.28041 7.2005 8.26345 7.20336Z" fill="#AB3838"/>
<path d="M12.4645 6.81325C10.9278 7.16265 10.5692 8.24054 10.2141 9.14373L10.5368 9.25904L10.699 8.85723C10.7809 8.88693 10.8663 8.90964 10.9278 8.90964C12.806 8.90964 13.3182 5.93976 13.3182 5.93976C13.1475 6.28916 11.9523 6.33283 11.0985 6.50753C10.2448 6.68223 9.9033 7.4247 9.9033 7.7741C9.9033 8.12349 10.2021 8.42922 10.2021 8.42922C10.757 6.81325 12.4645 6.81325 12.4645 6.81325Z" fill="#AB3838"/>
<path d="M16.3149 6.42968C16.4797 6.34059 16.6176 6.20725 16.7138 6.04398C16.8101 5.88071 16.8611 5.69369 16.8612 5.50301C16.8612 5.46826 16.8477 5.43494 16.8237 5.41036C16.7997 5.38579 16.7671 5.37199 16.7332 5.37199H16.6051C16.422 5.37206 16.2423 5.42232 16.0847 5.51755C15.927 5.61277 15.7972 5.74948 15.7087 5.91345C15.6202 5.74948 15.4904 5.61277 15.3327 5.51755C15.1751 5.42232 14.9953 5.37206 14.8123 5.37199H14.6842C14.6502 5.37199 14.6177 5.38579 14.5937 5.41036C14.5696 5.43494 14.5561 5.46826 14.5561 5.50301C14.5561 5.53776 14.5696 5.57109 14.5937 5.59566C14.6177 5.62023 14.6502 5.63404 14.6842 5.63404H14.8123C14.995 5.63429 15.1716 5.70103 15.3106 5.82231C15.4496 5.94359 15.5419 6.11151 15.571 6.29604C15.2321 6.32998 14.9166 6.48843 14.683 6.74205C14.4494 6.99567 14.3136 7.32729 14.3006 7.67551C14.2876 8.02373 14.3984 8.36497 14.6124 8.63605C14.8264 8.90714 15.1292 9.08972 15.4646 9.14999C15.8001 9.21026 16.1455 9.14414 16.437 8.96386C16.7285 8.78359 16.9462 8.50137 17.05 8.16946C17.1537 7.83755 17.1364 7.47842 17.0013 7.15855C16.8661 6.83869 16.6223 6.57975 16.3149 6.42968ZM16.5944 5.63404C16.5642 5.81525 16.473 5.97995 16.3366 6.0996C16.2001 6.21925 16.0271 6.28631 15.8475 6.28916C15.8777 6.10794 15.9689 5.94324 16.1053 5.82359C16.2417 5.70394 16.4147 5.63689 16.5944 5.63404ZM16.6033 7.88306C16.5704 8.07302 16.4812 8.24803 16.3479 8.38444C16.2146 8.52086 16.0435 8.61208 15.8579 8.64579C15.8509 8.64695 15.8438 8.64755 15.8367 8.64759C15.8046 8.64754 15.7737 8.63515 15.7501 8.61288C15.7265 8.59061 15.712 8.56007 15.7093 8.52733C15.7067 8.49459 15.7162 8.46203 15.7359 8.4361C15.7556 8.41018 15.7841 8.39277 15.8158 8.38734C15.949 8.36312 16.0718 8.29762 16.1675 8.1997C16.2632 8.10179 16.3272 7.97617 16.3509 7.83983C16.3568 7.80582 16.3756 7.77555 16.4031 7.75563C16.4307 7.7357 16.4648 7.72772 16.4981 7.73342C16.5314 7.73911 16.5612 7.75804 16.5809 7.78606C16.6007 7.81409 16.6086 7.84895 16.6033 7.88306Z" fill="#AB3838"/>
<path d="M8.34053 13.8515C8.34053 13.6552 8.49601 13.4962 8.68781 13.4962H16.0965C16.2883 13.4962 16.4438 13.6552 16.4438 13.8515C16.4438 14.0477 16.2883 14.2068 16.0965 14.2068H8.68781C8.49601 14.2068 8.34053 14.0477 8.34053 13.8515Z" fill="white"/>
<path d="M6.48837 9.11397C6.48837 8.91774 6.64385 8.75865 6.83565 8.75865H17.7171C17.9089 8.75865 18.0644 8.91774 18.0644 9.11397C18.0644 9.31021 17.9089 9.46929 17.7171 9.46929H6.83565C6.64385 9.46929 6.48837 9.31021 6.48837 9.11397Z" fill="white"/>
<path d="M17.2375 9.84969C17.1245 9.80412 17.069 9.67348 17.1136 9.55789L17.8538 7.63666C17.9476 7.39324 18.2165 7.27371 18.4544 7.36967C18.6924 7.46564 18.8092 7.74076 18.7154 7.98418L18.0643 9.67395C17.9705 9.91737 17.7016 10.0369 17.4637 9.94094L17.2375 9.84969Z" fill="white"/>
<path d="M18.0991 7.65018C18.0991 7.47741 18.236 7.33735 18.4049 7.33735H21.3433C21.6262 7.33735 21.8556 7.572 21.8556 7.86145C21.8556 8.1509 21.6262 8.38554 21.3433 8.38554H18.6114C18.3285 8.38554 18.0991 8.1509 18.0991 7.86145V7.65018Z" fill="white"/>
<path d="M8.57205 17.535C8.57205 17.2734 8.77936 17.0612 9.0351 17.0612H18.0644C18.3201 17.0612 18.5274 17.2734 18.5274 17.535C18.5274 17.7967 18.3201 18.0088 18.0644 18.0088H9.0351C8.77936 18.0088 8.57205 17.7967 8.57205 17.535Z" fill="white"/>
<path d="M8.34053 15.64C8.34053 15.3783 8.54784 15.1662 8.80357 15.1662H15.5177C15.7734 15.1662 15.9807 15.3783 15.9807 15.64C15.9807 15.9016 15.7734 16.1137 15.5177 16.1137H8.80357C8.54784 16.1137 8.34053 15.9016 8.34053 15.64Z" fill="white"/>
<path d="M15.5206 16.0377C15.2777 15.9559 15.1456 15.6881 15.2256 15.4396L17.3247 8.91447C17.4047 8.66594 17.6664 8.53078 17.9093 8.61258C18.1522 8.69438 18.2843 8.96218 18.2044 9.21071L16.1052 15.7359C16.0253 15.9844 15.7636 16.1195 15.5206 16.0377Z" fill="white"/>
<path d="M9.26662 17.9316C9.26662 17.9742 9.23287 18.0088 9.19124 18.0088C8.72141 18.0088 8.34053 17.6191 8.34053 17.1384V15.64C8.34053 15.3783 8.54784 15.1662 8.80357 15.1662C9.05931 15.1662 9.26662 15.3783 9.26662 15.64V17.9316Z" fill="white"/>
<path d="M10.8873 20.0104C10.8873 20.7299 10.3172 21.3132 9.6139 21.3132C8.91064 21.3132 8.34053 20.7299 8.34053 20.0104C8.34053 19.2909 8.91064 18.7076 9.6139 18.7076C10.3172 18.7076 10.8873 19.2909 10.8873 20.0104Z" fill="white"/>
<path d="M16.9068 20.0104C16.9068 20.7299 16.3367 21.3132 15.6334 21.3132C14.9302 21.3132 14.3601 20.7299 14.3601 20.0104C14.3601 19.2909 14.9302 18.7076 15.6334 18.7076C16.3367 18.7076 16.9068 19.2909 16.9068 20.0104Z" fill="white"/>
<path d="M6.48837 10.4168C6.48837 10.2859 6.59202 10.1799 6.71989 10.1799H14.1286C14.2564 10.1799 14.3601 10.2859 14.3601 10.4168C14.3601 10.5476 14.2564 10.6536 14.1286 10.6536H6.71989C6.59202 10.6536 6.48837 10.5476 6.48837 10.4168Z" fill="white"/>
<path d="M6.48837 11.6012C6.48837 11.4703 6.59202 11.3643 6.71989 11.3643H14.1286C14.2564 11.3643 14.3601 11.4703 14.3601 11.6012C14.3601 11.732 14.2564 11.838 14.1286 11.838H6.71989C6.59202 11.838 6.48837 11.732 6.48837 11.6012Z" fill="white"/>
<path d="M6.48837 12.7856C6.48837 12.6547 6.59202 12.5487 6.71989 12.5487H14.1286C14.2564 12.5487 14.3601 12.6547 14.3601 12.7856C14.3601 12.9164 14.2564 13.0224 14.1286 13.0224H6.71989C6.59202 13.0224 6.48837 12.9164 6.48837 12.7856Z" fill="white"/>
<path d="M20.7662 16.8445C20.6433 16.8445 20.5476 16.8095 20.4793 16.7396C20.4111 16.6628 20.3769 16.558 20.3769 16.4252V9.72723C20.3769 9.58747 20.4111 9.48265 20.4793 9.41277C20.5476 9.34289 20.6433 9.30795 20.7662 9.30795C20.8755 9.30795 20.9609 9.33241 21.0223 9.38132C21.0906 9.42325 21.1521 9.49663 21.2067 9.60145L24.0138 15.0101H23.7065L26.5033 9.60145C26.5579 9.49663 26.616 9.42325 26.6775 9.38132C26.7389 9.33241 26.8277 9.30795 26.9438 9.30795C27.0599 9.30795 27.1521 9.34289 27.2204 9.41277C27.2887 9.48265 27.3229 9.58747 27.3229 9.72723V16.4252C27.3229 16.558 27.2887 16.6628 27.2204 16.7396C27.159 16.8095 27.0633 16.8445 26.9336 16.8445C26.8106 16.8445 26.715 16.8095 26.6467 16.7396C26.5784 16.6628 26.5443 16.558 26.5443 16.4252V10.5343H26.7901L24.2289 15.4504C24.1811 15.5412 24.1299 15.6076 24.0753 15.6495C24.0275 15.6845 23.9557 15.7019 23.8601 15.7019C23.7645 15.7019 23.6894 15.681 23.6347 15.639C23.5801 15.5971 23.5323 15.5342 23.4913 15.4504L20.8994 10.5239H21.1453V16.4252C21.1453 16.558 21.1111 16.6628 21.0428 16.7396C20.9813 16.8095 20.8891 16.8445 20.7662 16.8445Z" fill="#F5FBF3"/>
<path d="M28.9668 16.8445C28.8576 16.8445 28.7688 16.82 28.7005 16.7711C28.639 16.7152 28.6014 16.6453 28.5878 16.5614C28.581 16.4706 28.6014 16.3693 28.6493 16.2575L31.4666 9.69578C31.528 9.55602 31.5998 9.45819 31.6817 9.40229C31.7705 9.3394 31.8661 9.30795 31.9686 9.30795C32.071 9.30795 32.1632 9.3394 32.2452 9.40229C32.334 9.45819 32.4057 9.55602 32.4603 9.69578L35.2879 16.2575C35.3425 16.3693 35.363 16.4706 35.3493 16.5614C35.3425 16.6523 35.3084 16.7222 35.2469 16.7711C35.1854 16.82 35.1001 16.8445 34.9908 16.8445C34.8678 16.8445 34.7688 16.813 34.6937 16.7501C34.6186 16.6802 34.5571 16.5824 34.5093 16.4566L33.7512 14.6642L34.161 14.8843H29.7557L30.1757 14.6642L29.4279 16.4566C29.3664 16.5894 29.3015 16.6872 29.2332 16.7501C29.1649 16.813 29.0761 16.8445 28.9668 16.8445ZM31.9583 10.3876L30.3089 14.3602L30.063 14.1611H33.8536L33.6282 14.3602L31.9788 10.3876H31.9583Z" fill="#F5FBF3"/>
<path d="M37.004 16.8445C36.8675 16.8445 36.7616 16.806 36.6865 16.7292C36.6182 16.6453 36.584 16.5335 36.584 16.3937V9.82157C36.584 9.67482 36.6216 9.56651 36.6967 9.49663C36.7718 9.41976 36.8777 9.38132 37.0143 9.38132H39.4423C40.2141 9.38132 40.8083 9.56651 41.2249 9.93687C41.6415 10.3072 41.8498 10.8348 41.8498 11.5196C41.8498 11.9529 41.7542 12.3302 41.563 12.6517C41.3786 12.9661 41.1054 13.2072 40.7434 13.3749C40.3814 13.5357 39.9477 13.616 39.4423 13.616L39.5448 13.4798H39.7496C40.016 13.4798 40.2482 13.5496 40.4463 13.6894C40.6444 13.8292 40.8254 14.0528 40.9893 14.3602L41.9728 16.2365C42.0274 16.3343 42.0513 16.4322 42.0445 16.53C42.0445 16.6208 42.0138 16.6977 41.9523 16.7606C41.8908 16.8165 41.802 16.8445 41.6859 16.8445C41.5698 16.8445 41.4742 16.8165 41.3991 16.7606C41.3239 16.7047 41.259 16.6243 41.2044 16.5195L40.0877 14.4022C39.9306 14.1017 39.7496 13.9025 39.5448 13.8047C39.3399 13.6999 39.0701 13.6475 38.7354 13.6475H37.4241V16.3937C37.4241 16.5335 37.3899 16.6453 37.3216 16.7292C37.2533 16.806 37.1475 16.8445 37.004 16.8445ZM37.4241 12.9661H39.3194C39.8794 12.9661 40.3029 12.8474 40.5897 12.6098C40.8766 12.3652 41.02 12.0018 41.02 11.5196C41.02 11.0514 40.8766 10.6986 40.5897 10.461C40.3029 10.2164 39.8794 10.0941 39.3194 10.0941H37.4241V12.9661Z" fill="#F5FBF3"/>
<path d="M43.8573 16.8445C43.7207 16.8445 43.6148 16.806 43.5397 16.7292C43.4714 16.6453 43.4372 16.5335 43.4372 16.3937V9.74819C43.4372 9.60145 43.4714 9.49313 43.5397 9.42325C43.6148 9.34639 43.7207 9.30795 43.8573 9.30795C43.9939 9.30795 44.0963 9.34639 44.1646 9.42325C44.2397 9.49313 44.2773 9.60145 44.2773 9.74819V12.7355H44.2978L47.6376 9.54904C47.7195 9.46518 47.8015 9.40578 47.8835 9.37084C47.9654 9.32892 48.0542 9.30795 48.1498 9.30795C48.2796 9.30795 48.3718 9.3394 48.4264 9.40229C48.4879 9.46518 48.5118 9.54205 48.4981 9.63289C48.4845 9.72373 48.4367 9.81108 48.3547 9.89494L44.8612 13.2072L44.8715 12.746L48.5186 16.1946C48.6211 16.2924 48.6757 16.3937 48.6826 16.4986C48.6894 16.5964 48.6586 16.6802 48.5903 16.7501C48.5289 16.813 48.4333 16.8445 48.3035 16.8445C48.201 16.8445 48.1123 16.82 48.0371 16.7711C47.9688 16.7292 47.8903 16.6628 47.8015 16.5719L44.2978 13.2911H44.2773V16.3937C44.2773 16.5335 44.2431 16.6453 44.1748 16.7292C44.1065 16.806 44.0007 16.8445 43.8573 16.8445Z" fill="#F5FBF3"/>
<path d="M50.3012 16.7711C50.151 16.7711 50.0349 16.7327 49.9529 16.6558C49.8778 16.5719 49.8402 16.4531 49.8402 16.2994V9.85301C49.8402 9.69928 49.8778 9.58398 49.9529 9.50711C50.0349 9.42325 50.151 9.38132 50.3012 9.38132H54.1123C54.2284 9.38132 54.3172 9.41277 54.3787 9.47566C54.4401 9.53855 54.4709 9.6259 54.4709 9.73771C54.4709 9.85651 54.4401 9.94735 54.3787 10.0102C54.3172 10.0731 54.2284 10.1046 54.1123 10.1046H50.6598V12.6622H53.8972C54.0133 12.6622 54.1021 12.6936 54.1635 12.7565C54.225 12.8124 54.2557 12.8998 54.2557 13.0186C54.2557 13.1373 54.225 13.2282 54.1635 13.2911C54.1021 13.354 54.0133 13.3854 53.8972 13.3854H50.6598V16.0478H54.1123C54.2284 16.0478 54.3172 16.0793 54.3787 16.1422C54.4401 16.2051 54.4709 16.2924 54.4709 16.4042C54.4709 16.523 54.4401 16.6139 54.3787 16.6767C54.3172 16.7396 54.2284 16.7711 54.1123 16.7711H50.3012Z" fill="#F5FBF3"/>
<path d="M57.8753 16.8445C57.7456 16.8445 57.6431 16.806 57.568 16.7292C57.4929 16.6453 57.4553 16.5335 57.4553 16.3937V10.1255H55.1502C55.0273 10.1255 54.9317 10.0906 54.8634 10.0207C54.7951 9.95084 54.7609 9.86 54.7609 9.74819C54.7609 9.6294 54.7951 9.53855 54.8634 9.47566C54.9317 9.41277 55.0273 9.38132 55.1502 9.38132H60.6107C60.7336 9.38132 60.8293 9.41277 60.8976 9.47566C60.9659 9.53855 61 9.6294 61 9.74819C61 9.86699 60.9659 9.96132 60.8976 10.0312C60.8293 10.0941 60.7336 10.1255 60.6107 10.1255H58.3056V16.3937C58.3056 16.5335 58.2681 16.6453 58.1929 16.7292C58.1246 16.806 58.0188 16.8445 57.8753 16.8445Z" fill="#F5FBF3"/>
<path d="M45.4213 21.6969C45.3703 21.6969 45.3289 21.6855 45.297 21.6627C45.2683 21.6366 45.2508 21.604 45.2444 21.5648C45.2413 21.5224 45.2508 21.4751 45.2731 21.423L46.5879 18.3608C46.6166 18.2956 46.65 18.25 46.6883 18.2239C46.7297 18.1945 46.7743 18.1799 46.8221 18.1799C46.8699 18.1799 46.913 18.1945 46.9512 18.2239C46.9927 18.25 47.0261 18.2956 47.0516 18.3608L48.3711 21.423C48.3966 21.4751 48.4062 21.5224 48.3998 21.5648C48.3966 21.6072 48.3807 21.6398 48.352 21.6627C48.3233 21.6855 48.2835 21.6969 48.2325 21.6969C48.1751 21.6969 48.1289 21.6822 48.0939 21.6529C48.0588 21.6203 48.0301 21.5746 48.0078 21.5159L47.654 20.6794L47.8452 20.7822H45.7895L45.9855 20.6794L45.6365 21.5159C45.6078 21.5779 45.5775 21.6235 45.5456 21.6529C45.5138 21.6822 45.4723 21.6969 45.4213 21.6969ZM46.8174 18.6837L46.0476 20.5376L45.9329 20.4447H47.7018L47.5966 20.5376L46.8269 18.6837H46.8174Z" fill="#45BC1B"/>
<path d="M49.6795 21.7067C49.536 21.7067 49.391 21.6887 49.2444 21.6529C49.101 21.617 48.9671 21.555 48.8428 21.467C48.8109 21.4442 48.7886 21.4181 48.7759 21.3887C48.7631 21.3561 48.7584 21.3251 48.7615 21.2958C48.7679 21.2632 48.7807 21.2355 48.7998 21.2126C48.8221 21.1898 48.8476 21.1768 48.8763 21.1735C48.9082 21.167 48.9432 21.1735 48.9815 21.1931C49.1058 21.2713 49.2253 21.3268 49.34 21.3594C49.458 21.3887 49.5743 21.4034 49.689 21.4034C49.8707 21.4034 50.0078 21.3692 50.1002 21.3007C50.1926 21.2322 50.2388 21.1393 50.2388 21.0219C50.2388 20.9305 50.2086 20.8588 50.148 20.8066C50.0874 20.7512 49.9918 20.7088 49.8611 20.6794L49.4261 20.5816C49.2253 20.5392 49.0755 20.4658 48.9767 20.3615C48.8811 20.2571 48.8333 20.1218 48.8333 19.9555C48.8333 19.8087 48.8699 19.6832 48.9432 19.5788C49.0197 19.4712 49.1265 19.3881 49.2635 19.3294C49.4006 19.2707 49.56 19.2413 49.7416 19.2413C49.8819 19.2413 50.0141 19.2609 50.1384 19.3C50.2659 19.3359 50.3807 19.3946 50.4827 19.4761C50.5145 19.4989 50.5353 19.5267 50.5448 19.5593C50.5576 19.5886 50.5592 19.6196 50.5496 19.6522C50.5432 19.6816 50.5289 19.7077 50.5066 19.7305C50.4843 19.75 50.4572 19.7615 50.4253 19.7647C50.3934 19.768 50.36 19.7582 50.3249 19.7354C50.2293 19.6702 50.1321 19.6229 50.0333 19.5935C49.9345 19.5609 49.8372 19.5446 49.7416 19.5446C49.5631 19.5446 49.4277 19.5805 49.3353 19.6522C49.2428 19.724 49.1966 19.8185 49.1966 19.9359C49.1966 20.0272 49.2253 20.1022 49.2827 20.1609C49.34 20.2196 49.4293 20.262 49.5504 20.2881L49.9855 20.3811C50.1926 20.4267 50.3472 20.5001 50.4492 20.6012C50.5544 20.699 50.607 20.8327 50.607 21.0023C50.607 21.2175 50.5225 21.3887 50.3536 21.5159C50.1847 21.6431 49.96 21.7067 49.6795 21.7067Z" fill="#45BC1B"/>
<path d="M51.9812 21.7067C51.8378 21.7067 51.6928 21.6887 51.5462 21.6529C51.4027 21.617 51.2689 21.555 51.1446 21.467C51.1127 21.4442 51.0904 21.4181 51.0776 21.3887C51.0649 21.3561 51.0601 21.3251 51.0633 21.2958C51.0697 21.2632 51.0824 21.2355 51.1015 21.2126C51.1238 21.1898 51.1493 21.1768 51.178 21.1735C51.2099 21.167 51.245 21.1735 51.2832 21.1931C51.4075 21.2713 51.527 21.3268 51.6418 21.3594C51.7597 21.3887 51.876 21.4034 51.9908 21.4034C52.1725 21.4034 52.3095 21.3692 52.4019 21.3007C52.4944 21.2322 52.5406 21.1393 52.5406 21.0219C52.5406 20.9305 52.5103 20.8588 52.4497 20.8066C52.3892 20.7512 52.2936 20.7088 52.1629 20.6794L51.7278 20.5816C51.527 20.5392 51.3772 20.4658 51.2784 20.3615C51.1828 20.2571 51.135 20.1218 51.135 19.9555C51.135 19.8087 51.1716 19.6832 51.245 19.5788C51.3214 19.4712 51.4282 19.3881 51.5653 19.3294C51.7023 19.2707 51.8617 19.2413 52.0434 19.2413C52.1836 19.2413 52.3159 19.2609 52.4402 19.3C52.5677 19.3359 52.6824 19.3946 52.7844 19.4761C52.8163 19.4989 52.837 19.5267 52.8466 19.5593C52.8593 19.5886 52.8609 19.6196 52.8513 19.6522C52.845 19.6816 52.8306 19.7077 52.8083 19.7305C52.786 19.75 52.7589 19.7615 52.727 19.7647C52.6952 19.768 52.6617 19.7582 52.6266 19.7354C52.531 19.6702 52.4338 19.6229 52.335 19.5935C52.2362 19.5609 52.139 19.5446 52.0434 19.5446C51.8649 19.5446 51.7294 19.5805 51.637 19.6522C51.5446 19.724 51.4983 19.8185 51.4983 19.9359C51.4983 20.0272 51.527 20.1022 51.5844 20.1609C51.6418 20.2196 51.731 20.262 51.8521 20.2881L52.2872 20.3811C52.4944 20.4267 52.6489 20.5001 52.7509 20.6012C52.8561 20.699 52.9087 20.8327 52.9087 21.0023C52.9087 21.2175 52.8242 21.3887 52.6553 21.5159C52.4864 21.6431 52.2617 21.7067 51.9812 21.7067Z" fill="#45BC1B"/>
<path d="M53.6901 21.6871C53.6264 21.6871 53.5786 21.6692 53.5467 21.6333C53.5148 21.5942 53.4989 21.5404 53.4989 21.4719V19.4712C53.4989 19.4027 53.5148 19.3506 53.5467 19.3147C53.5786 19.2788 53.6264 19.2609 53.6901 19.2609C53.7507 19.2609 53.7985 19.2788 53.8336 19.3147C53.8686 19.3506 53.8861 19.4027 53.8861 19.4712V21.4719C53.8861 21.5404 53.8686 21.5942 53.8336 21.6333C53.8017 21.6692 53.7539 21.6871 53.6901 21.6871ZM53.6901 18.713C53.6104 18.713 53.5483 18.6918 53.5037 18.6494C53.4591 18.6038 53.4367 18.5435 53.4367 18.4685C53.4367 18.3902 53.4591 18.3315 53.5037 18.2924C53.5483 18.25 53.6104 18.2288 53.6901 18.2288C53.773 18.2288 53.8351 18.25 53.8766 18.2924C53.9212 18.3315 53.9435 18.3902 53.9435 18.4685C53.9435 18.5435 53.9212 18.6038 53.8766 18.6494C53.8351 18.6918 53.773 18.713 53.6901 18.713Z" fill="#45BC1B"/>
<path d="M55.3941 21.7067C55.2507 21.7067 55.1057 21.6887 54.9591 21.6529C54.8157 21.617 54.6818 21.555 54.5575 21.467C54.5256 21.4442 54.5033 21.4181 54.4906 21.3887C54.4778 21.3561 54.473 21.3251 54.4762 21.2958C54.4826 21.2632 54.4953 21.2355 54.5145 21.2126C54.5368 21.1898 54.5623 21.1768 54.591 21.1735C54.6228 21.167 54.6579 21.1735 54.6961 21.1931C54.8204 21.2713 54.94 21.3268 55.0547 21.3594C55.1726 21.3887 55.289 21.4034 55.4037 21.4034C55.5854 21.4034 55.7224 21.3692 55.8149 21.3007C55.9073 21.2322 55.9535 21.1393 55.9535 21.0219C55.9535 20.9305 55.9232 20.8588 55.8627 20.8066C55.8021 20.7512 55.7065 20.7088 55.5758 20.6794L55.1408 20.5816C54.94 20.5392 54.7902 20.4658 54.6914 20.3615C54.5957 20.2571 54.5479 20.1218 54.5479 19.9555C54.5479 19.8087 54.5846 19.6832 54.6579 19.5788C54.7344 19.4712 54.8412 19.3881 54.9782 19.3294C55.1153 19.2707 55.2746 19.2413 55.4563 19.2413C55.5965 19.2413 55.7288 19.2609 55.8531 19.3C55.9806 19.3359 56.0953 19.3946 56.1973 19.4761C56.2292 19.4989 56.2499 19.5267 56.2595 19.5593C56.2722 19.5886 56.2738 19.6196 56.2643 19.6522C56.2579 19.6816 56.2436 19.7077 56.2212 19.7305C56.1989 19.75 56.1718 19.7615 56.14 19.7647C56.1081 19.768 56.0746 19.7582 56.0396 19.7354C55.944 19.6702 55.8467 19.6229 55.7479 19.5935C55.6491 19.5609 55.5519 19.5446 55.4563 19.5446C55.2778 19.5446 55.1424 19.5805 55.0499 19.6522C54.9575 19.724 54.9113 19.8185 54.9113 19.9359C54.9113 20.0272 54.94 20.1022 54.9973 20.1609C55.0547 20.2196 55.1439 20.262 55.2651 20.2881L55.7001 20.3811C55.9073 20.4267 56.0619 20.5001 56.1639 20.6012C56.2691 20.699 56.3216 20.8327 56.3216 21.0023C56.3216 21.2175 56.2372 21.3887 56.0683 21.5159C55.8993 21.6431 55.6746 21.7067 55.3941 21.7067Z" fill="#45BC1B"/>
<path d="M57.8208 21.7067C57.6391 21.7067 57.4861 21.6741 57.3618 21.6088C57.2407 21.5404 57.1498 21.4425 57.0893 21.3153C57.0287 21.1849 56.9984 21.0267 56.9984 20.8409V19.5935H56.6781C56.6239 19.5935 56.5825 19.5805 56.5538 19.5544C56.5251 19.525 56.5108 19.4859 56.5108 19.437C56.5108 19.3881 56.5251 19.3506 56.5538 19.3245C56.5825 19.2984 56.6239 19.2853 56.6781 19.2853H56.9984V18.7228C56.9984 18.6576 57.016 18.6087 57.051 18.5761C57.0861 18.5402 57.1339 18.5223 57.1945 18.5223C57.255 18.5223 57.3012 18.5402 57.3331 18.5761C57.3682 18.6087 57.3857 18.6576 57.3857 18.7228V19.2853H57.9881C58.0423 19.2853 58.0837 19.2984 58.1124 19.3245C58.1411 19.3506 58.1554 19.3881 58.1554 19.437C58.1554 19.4859 58.1411 19.525 58.1124 19.5544C58.0837 19.5805 58.0423 19.5935 57.9881 19.5935H57.3857V20.8017C57.3857 20.9876 57.4239 21.1295 57.5004 21.2273C57.5769 21.3219 57.7012 21.3692 57.8733 21.3692C57.9339 21.3692 57.9849 21.3626 58.0263 21.3496C58.071 21.3365 58.1076 21.33 58.1363 21.33C58.165 21.3268 58.1889 21.3365 58.208 21.3594C58.2271 21.3822 58.2367 21.4213 58.2367 21.4768C58.2367 21.5159 58.2287 21.5518 58.2128 21.5844C58.2 21.617 58.1761 21.6398 58.1411 21.6529C58.1028 21.6659 58.0518 21.6773 57.9881 21.6871C57.9275 21.7002 57.8718 21.7067 57.8208 21.7067Z" fill="#45BC1B"/>
</svg>
